<svg xmlns="http://www.w3.org/2000/svg" width="292.5" height="335.7" viewBox="0 0 77.391 88.821">
  <g fill="#fde090">
    <path d="M60.986 46.223l11.854.08c2.116.026 3.836 1.454 3.836 3.227s-1.746 3.201-3.863 3.175l-11.853-.08c-2.117-.026-3.836-1.455-3.836-3.227 0-1.773 1.746-3.175 3.862-3.175zM42.598 46.117l3.995.026c2.117.027 3.837 1.456 3.837 3.228 0 1.773-1.747 3.202-3.863 3.175l-3.996-.026c-2.116-.027-3.836-1.455-3.836-3.228 0-1.773 1.746-3.202 3.863-3.175z"/>
  </g>
  <path d="M77.39 55.298A33.523 33.523 0 0 1 43.869 88.82a33.523 33.523 0 0 1-33.523-33.523 33.523 33.523 0 0 1 33.523-33.523A33.523 33.523 0 0 1 77.39 55.298z" fill="#61838c"/>
  <path d="M71.358 55.298a27.49 27.49 0 0 1-27.49 27.49 27.49 27.49 0 0 1-27.49-27.49 27.49 27.49 0 0 1 27.49-27.49 27.49 27.49 0 0 1 27.49 27.49z" fill="#412c31"/>
  <path d="M55.007 30.189c6.35 5.08 10.372 12.885 10.319 21.643-.106 15.187-12.489 27.384-27.65 27.305a27.56 27.56 0 0 1-10.953-2.355 27.437 27.437 0 0 0 16.986 6.033c15.187.105 27.57-12.118 27.65-27.305a27.514 27.514 0 0 0-16.352-25.321z" fill="#1d1415"/>
  <path d="M74.163 81.2C60.007 46.33 45.11 52.547 45.11 52.547s-6.006 14.976 29.052 28.655z" fill="#3f7f3d"/>
  <path d="M66.49 36.169C43.656 43.47 46.884 53.234 46.884 53.234S56.092 57.76 66.49 36.17z" fill="#67a142"/>
  <path d="M30.215 67.786c21.326-10.954 16.537-20.055 16.537-20.055s-9.843-2.963-16.537 20.055z" fill="#67a142"/>
  <path d="M40.349 77.126c12.065-20.717 3.148-25.797 3.148-25.797s-9.895 2.778-3.148 25.797z" fill="#67a142"/>
  <path d="M43.841 0c-18.997 43.365-.344 51.33-.344 51.33s18.76-7.727.344-51.33z" fill="#3f7f3d"/>
  <path d="M0 53.922c39.053 15.849 45.694-.952 45.694-.952S38.364 36.46 0 53.922z" fill="#3f7f3d"/>
  <path d="M26.273 25.903c6.456 23.071 16.325 20.214 16.325 20.214s4.895-9.049-16.325-20.214z" fill="#67a142"/>
</svg>
