<svg xmlns="http://www.w3.org/2000/svg" width="350.451" height="309.703" viewBox="0 0 92.723 81.942">
  <path d="M27.982 81.704l35.507.238c12.171.08 22.12-9.737 22.199-21.908l.264-39.82-79.64-.529-.264 39.82c-.08 12.171 9.737 22.12 21.934 22.199z" fill="#8b5e3c"/>
  <path d="M.016 8.123c.37 6.932 9.71 13.732 9.71 13.732l35.242-.582 37.28 1.058s9.975-6.667 10.451-13.6C93.175 1.8 86.481.53 86.481.53L5.995 0c0-.026-6.35 1.165-5.98 8.123z" fill="#8b5e3c"/>
  <path d="M9.726 21.855l35.242-.582 37.28 1.058s7.435-4.974 9.763-10.795c-1.614-3.519-5.556-4.286-5.556-4.286L5.969 6.72S2.212 7.436.65 10.929c2.116 5.847 9.075 10.927 9.075 10.927z" fill="#603913"/>
</svg>
