<svg xmlns="http://www.w3.org/2000/svg" width="350.457" height="309.12" viewBox="0 0 92.725 81.788">
  <path d="M63.96 0L28.452.137C16.281.186 6.436 10.107 6.486 22.28l.157 39.82 79.64-.312-.156-39.82C86.078 9.794 76.157-.05 63.96 0z" fill="#8b5e3c"/>
  <path d="M92.702 73.282c-.444-6.928-9.855-13.629-9.855-13.629l-35.234.954-37.289-.664S.42 66.715.017 73.653c-.402 6.936 6.305 8.135 6.305 8.135l80.487-.32c0 .025 6.337-1.233 5.894-8.186z" fill="#8b5e3c"/>
  <path d="M82.847 59.653l-35.234.954-37.289-.664S2.942 64.995.676 70.841c1.65 3.502 5.6 4.227 5.6 4.227l80.488-.32s3.749-.756 5.274-4.266c-2.178-5.824-9.19-10.83-9.19-10.83z" fill="#603913"/>
</svg>
