<svg xmlns="http://www.w3.org/2000/svg" width="918.342" height="880.448" viewBox="0 0 242.978 232.952">
  <g clip-rule="evenodd" fill-rule="evenodd">
    <path d="M52.229 199.231c.053.318.106.635.158.926-.423-.185-.714-.9-.158-.926zM91.255 232.33c.45-.185.9-.343 1.376-.502.053.08.079.185.105.291.239 1.058-2.063 1.085-1.481.212zM116.47 231.431c.132-.08.264-.185.396-.265-.079.133-.238.212-.396.265zM126.444 229.605c.265-.053.556-.105.847-.158-.185.344-.767.582-.847.158zM140.6 228.732c.37-.08.714-.158 1.084-.238-.053.556-1.19.9-1.084.238zM202.724 226.457a.604.604 0 0 1-.318-.159l.318.159zM213.307 86.916c.344.132.688.264 1.032.37a4.806 4.806 0 0 1-1.032-.37z" fill="#ae3d3b"/>
    <path d="M241.882 225.107c-1.984-2.487-5.715-2.698-8.837-2.01-3.122.661-6.165 2.01-9.34 1.799-2.751-.185-5.318-1.508-8.017-2.064-2.698-.582-6.032-.132-7.434 2.275-.477.794-1.667.688-2.514.265-.847-.397-1.693-1.005-2.593-.847-.794.133-1.19 1.323-.714 1.773-.873-.423-1.747-.873-2.593-1.296-.37 1.799-.741 3.572-1.111 5.37a12.484 12.484 0 0 1-2.832-4.497c-1.746.979-3.492 1.931-5.238 2.91l3.386-3.704c.106-.132.239-.265.344-.397-.264.132-.502.265-.767.397-3.07 1.535-6.138 3.043-9.207 4.577.635-.555 1.27-1.11 1.905-1.667a17.812 17.812 0 0 0-8.097.212c-2.196-2.302-5.794-2.54-8.916-1.905-3.122.635-6.06 2.011-9.208 2.434-1.164.159-2.857-.608-2.249-1.614-1.958.926-3.942 1.826-5.9 2.752.212-1.217.397-2.434.609-3.651-3.625.767-7.25 1.534-10.848 2.302 0-.08 0-.133-.027-.212-.29-.662-1.217-.714-1.931-.662-4.18.37-8.308.98-12.436 1.8a.392.392 0 0 0 0-.344c-.211-.503-.9-.582-1.455-.582-3.148.079-6.297 1.005-8.97 2.672.45-.53.239-1.64-.449-2.037-.847-.477-1.905-.265-2.83 0-4.181 1.084-8.362 2.196-12.542 3.28.423-.661.846-1.322 1.27-1.957a27.362 27.362 0 0 0-9.684 1.375c-.397-.793-1.587-1.005-2.54-1.032l-26.802-.952c-1.64-.053-3.943-1.508-2.778-2.672l-3.096 1.905c-2.275-4.922-4.55-9.87-6.826-14.79a29.363 29.363 0 0 1 5.53 5.635 28.18 28.18 0 0 1-2.276-7.858c.159.212.291.476.397.714.08.662.185 1.297.265 1.958.105-.661 0-1.35-.265-1.958-.265-1.931-.53-3.863-.767-5.794l-1.112-6.826c.16.08.318.08.477-.027.582-.45.344-1.376-.027-2.01-.37-.636-.846-1.35-.582-2.038.767 1.058 1.508 2.117 2.276 3.202-4.128-5.795-2.91-16.457-4.313-23.204a7.088 7.088 0 0 1 2.249 2.513 65.518 65.518 0 0 1-1.932-9.049 7.864 7.864 0 0 1 2.567 2.461c-.291-5.16.053-11.403-1.376-16.298.688.979 2.434 2.143 2.858 3.148a57.58 57.58 0 0 1-3.943-15.002c.688.635 1.35 1.27 2.038 1.905l-1.138-7.381a7.132 7.132 0 0 1 1.35 2.54 47.53 47.53 0 0 0 .184 3.386 7.317 7.317 0 0 0-.185-3.386c-.08-2.99.132-6.007.609-8.943 0 1.005-.027 1.984-.053 2.99.37-4.684.714-9.367 1.085-14.05-.715-1.164-1.43-2.302-2.117-3.466-.714-2.99-.344-6.218.979-8.996-1.27 1.138-2.514 2.276-3.784 3.387 1.667-5.424 4.128-10.584 7.223-15.32-.873-.026-1.72-.026-2.592-.052 1.031-.477 2.063-.98 3.095-1.456a6.28 6.28 0 0 1-3.757.133c1.164-.768 2.302-1.535 3.466-2.276a26.519 26.519 0 0 1 14.976-1.111 8.225 8.225 0 0 1-4.313-3.043c4.71-.582 9.551.053 13.943 1.826-.714-.82-1.402-1.64-2.116-2.46 3.333-.424 6.8.052 9.895 1.349-1.825-.874-3.625-1.773-5.45-2.646 4.524.529 9.022 1.058 13.546 1.587 3.916.45 7.832.741 11.774.926 3.334.16 5.689 1.64 8.864 1.8 14.182.661 27.596-1.323 41.275-4.604.714-.159 1.429-.318 2.143-.45 12.568-2.117 26.723 2.778 39.582 1.35-1.059-.292-2.09-.556-3.149-.847 4.604-.16 9.234.079 13.811.74 1.694.239 3.387.53 5.054.9-.847-.291-1.667-.608-2.514-.926 2.382.609 5.477-.132 7.647-.476a84.151 84.151 0 0 1 18.23-.953c-1.297.556-2.302 1.8-2.567 3.175.9-.238 1.8-.476 2.725-.688a4.308 4.308 0 0 0-1.217 2.196l1.694.08c-1.297 5.688-2.7 12.356-2.064 18.23.317 2.91.37 10.821 1.746 12.409.53-.08.582-.318.635-.688-.661 5.424-1.35 10.821-2.01 16.245-.318-.053-.371.714-.054.503.027-.159.053-.344.053-.503h.053c.37.132.37.609.344 1.005-.397 3.334-.767 6.694-1.164 10.028-.291.238-.45.635-.106.82.027-.264.053-.555.106-.82.212-.159.476-.238.714-.106.582.318.635 1.112.635 1.773l-.079 16.193c.661 3.783 1.323 7.54 1.984 11.324-.714-.503-1.428-1.032-2.143-1.535.741 1.879 1.455 3.757 2.196 5.636-.608-.582-1.217-1.138-1.799-1.72.397 3.07.794 6.165 1.19 9.234-.502-.926-1.005-1.879-1.507-2.805l2.09 11.377c-.212 1.614-.45 3.255-.662 4.869-.529-.635-1.058-1.244-1.587-1.879 3.625 7.673 4.498 16.642 2.434 24.897z" fill="#ae3d3b"/>
    <path d="M211.799 29.475v57.864a77.875 77.875 0 0 0-13.811-.74c1.058.29 2.09.555 3.148.846-12.885 1.429-27.014-3.466-39.581-1.35l34.713-72.151z" fill="#d17545"/>
    <path d="M211.799 87.339v120.332c0 9.605-7.805 17.41-17.41 17.41h-75.591l-18.944-10.769 61.7-128.217c12.568-2.116 26.723 2.779 39.582 1.35-1.058-.291-2.09-.556-3.148-.847 4.63-.159 9.234.08 13.811.741z" fill="#9d2c2a"/>
    <path d="M7.779 14.631h83.476v52.335H7.779z" fill="#d17545"/>
    <g fill="#d17545">
      <path d="M39.105 128.164s-10.61 1.323-12.356 1.693c-1.746.397-8.916 1.826-12.223.186-3.308-1.667-6.033-3.81-6.324-7.7-.317-3.916 3.942-4.868 3.942-4.868s4.234-1.376 8.996-.661c4.763.714 10.134.873 14.843.396 4.71-.476 9.208-1.27 10.478 4.022 1.243 5.265-3.916 6.509-7.356 6.932"/>
      <path d="M31.512 127.952l2.064-.132s-2.54 1.932-5.107.767c0-.026 2.46.292 3.043-.635M32.623 118.692l-2.064.106s-2.434-1.376-2.619-1.429c0 0 1.19-.397 2.17.212 1.005.608 2.249 1.005 2.513 1.111"/>
      <path d="M30.506 128.8l-1.931.21s-3.942-.21-4.683-5.661l1.35.08s1.243 5.37 5.264 5.37M23.892 121.55s.37-3.625 2.62-4.313h2.698s-2.884-.37-3.969 4.313z"/>
      <path d="M25.03 123.772l-11.06-.53s-1.826-1.11 0-2.354l11.06.318c0 .026.476 1.534 0 2.566M38.709 101.759s-10.663-.609-12.436-.9c-1.773-.29-9.022-1.243-12.224.635-3.201 1.879-5.768 4.18-5.82 8.096-.053 3.916 4.233 4.604 4.233 4.604s4.313 1.085 9.022.08c4.71-1.032 10.054-1.535 14.79-1.35 4.736.185 9.287.662 10.187-4.683.926-5.397-4.313-6.27-7.752-6.482"/>
      <path d="M30.983 102.579h2.063s-2.672-1.746-5.132-.423c0 0 2.46-.477 3.069.423M32.835 111.707l-2.064.027s-2.355 1.534-2.514 1.587c0 0 1.218.318 2.17-.344.926-.661 2.143-1.164 2.408-1.27M24.95 107.05l-11.006 1.244s-1.747 1.243.158 2.355l11.033-1.059c-.026 0 .344-1.534-.185-2.54"/>
      <path d="M23.971 109.352s.609 3.599 2.91 4.154l2.673-.185s-2.858.556-4.233-4.048zM30.083 101.68l-1.931-.08s-3.916.476-4.313 5.953l1.323-.159c.026 0 .9-5.45 4.921-5.715"/>
    </g>
    <path d="M98.795 211.587V14.367h.239c0-.132-.186-.423 0-.423h97.922V210.29c0 3.651-4.207 6.64-9.366 6.64h-81.228c-4.18.027-7.567-2.407-7.567-5.344" fill="#f9d3cc"/>
    <path d="M111.204 17.277s12.356 2.858 32.385 3.89c20.03 1.032 44.874-1.958 44.874-1.958s-3.89 10.24-3.36 20.558c.529 10.319 3.36 22.278 3.36 22.278s-12.356-3.016-15.875-2.646l.344 2.805s17.806 4.603 19.923 5.662c2.116 1.058-81.677 0-81.677 0s13.414-5.689 16.219-5.848V59.4s-12.885.132-16.748 2.62c5.106-13.918 3.36-22.279 3.36-22.279s1.058-1.508 1.058-4.154c0-2.645-3.863-18.309-3.863-18.309z" fill="#efc0b6"/>
    <path d="M98.584 13.944L88.9 5.106h117.58l-10.212 8.838z" fill="#653b11"/>
    <path d="M88.9 0h117.58v5.133H88.9z" fill="#7f4a14"/>
    <path d="M120.412 21.193c19.711 1.773 39.714 1.693 59.954 0 1.588-.132 3.255 1.35 2.884 2.884-2.275 9.948-2.249 19.897 0 29.819.344 1.56-1.323 3.095-2.884 2.884-19.473-2.355-39.422-2.435-59.954 0-1.588.185-3.202-1.323-2.884-2.884 1.905-9.71 2.355-19.58 0-29.819-.37-1.534 1.296-3.016 2.884-2.884" fill="#f6f6f6"/>
    <path d="M134.567 53.79s3.44-10.054 0-13.309c2.646-2.646 4.233-8.387 2.196-12.885 10.398-2.196 11.483-1.402 13.097-4.048 4.789 3.36 13.758 3.783 13.758 3.783s-3.254 5.107-1.746 9.79c1.508 4.683 5.477 4.34 5.477 4.34s-4.313 2.275-5.292 5.238c-.979 2.937-.979 9.287-.979 9.287z" fill="#e4e4e4"/>
    <path d="M182.086 30.745c-.979 7.725-.555 15.451 1.19 23.177.345 1.561-1.322 3.096-2.883 2.884-19.473-2.355-39.423-2.434-59.955 0-.582.08-1.137-.08-1.64-.397 22.278-5.98 43.736-13.785 63.288-25.664" fill="#e4e4e4"/>
    <path d="M163.486 49.53c-3.651-6.853-4.18-11.695-4.18-11.695l-2.09-1.084-7.647 2.513-7.62-2.513-2.09 1.084s-1.455 5.16-4.18 11.695c-6.271 15.002-.98 22.013 6.482 24.553H157.903c7.409-2.513 12.303-11.906 5.583-24.553" fill="#664538"/>
    <path d="M150.495 146.923s-.635 25.956-1.588 33.602c-.952 7.647-3.545 19.315-2.037 19.685 1.905.45 4.79-1.243 5.847-4.339.292-.873.08-1.667.239-2.434.423-1.932.9-3.493.502-4.419-.555-1.27-1.19-5.265-.238-8.969.953-3.704 6.403-15.16 5.768-22.093-.635-6.932-1.587-11.06-1.587-11.06 1.11-13.176 6.561-21.616 7.223-36.115l-10.98-9.207-5.133 16.377c-1.932 10.954 1.323 19.315 1.984 28.972" fill="#f1dabb"/>
    <path d="M157.533 71.332l5.371 7.937c.926 3.52 2.249 8.414 2.54 9.42v.079c.026.053 0 .106-.027.132-1.613 1.587-2.936 3.572-4.339 5.345-.317.396-.608.793-.926 1.19-.926-3.863-2.222-8.017-.423-11.615.979-1.958-2.54-11.218-2.196-12.488m-23.125 37.227a3.69 3.69 0 0 0-.397-.583c-.793-1.164-.687-4.312-.396-5.794.873-4.207 1.614-8.44 2.301-12.673.37-2.355.715-4.684 1.032-7.038 0-.027 0-.08.027-.106.08-.635.185-1.297.264-1.932.318.953 1.985-8.546 2.593-7.276 3.043 6.43-.979 24.607-4.127 30.454-.82 1.376-1.138 3.175-1.297 4.948zm32.2-42.202c-1.482-6.323-11.324-5.662-13.44-9.101l-.9-6.985h-4.816l-1.005 6.509c-.9 7.46-14.605-6.377-15.425 27.093v.08c-.106 3.412-.291 6.8-.397 10.186a57.942 57.942 0 0 0-.053 2.17c-.08 3.703-.106 7.434.08 11.138.026.635.052 1.27.132 1.879.343 3.942.238 8.228 5.106 11.536 0 0 .53-.662.185-1.614-.37-.953-1.878-1.958-2.037-2.487-.159-.53.212-2.726.08-3.36 0 0 .899.899 1.005 1.825.106.9.264 1.27 1.428 1.693.027 0 .053.027.106.027 0 0-.211-1.138-.555-3.704a14.037 14.037 0 0 0-.318-1.588c5.107.609 9.049 3.149 12.753 6.906.291.159.609.238.9.264.317 0 .635-.079.926-.238 4.1-3.995 8.678-6.43 14.552-6.561-.027-2.646-.318-5.768-1.455-8.097-.635-1.27-1.27-2.593-1.826-3.968 1.561-1.43 3.096-2.884 4.63-4.34.9-.873 1.826-1.746 2.699-2.645.423-.424.979-.874 1.296-1.403 0-.026.027-.026.027-.053v-.026c0-.027 0-.053.026-.053v-.026c0-.027 0-.053.027-.106v-.027-.106-.026-.159-.159-.052-.16-.052-.212-.053-.185-.053c0-.08 0-.159-.027-.238 0-.08 0-.159-.026-.265v-.079c0-.08 0-.159-.027-.238v-.053c0-.106-.026-.185-.026-.291v-.08c0-.079-.027-.158-.027-.238v-.079c0-.106-.026-.212-.026-.317v-.053c0-.106-.026-.186-.026-.291v-.106c0-.08-.027-.185-.027-.291v-.08c-.026-.105-.026-.238-.053-.344l-.026-.132c0-.08-.027-.185-.027-.264l-.026-.133c-.027-.132-.027-.238-.053-.37v-.106c0-.106-.027-.212-.027-.291l-.026-.159c0-.08-.027-.185-.027-.264l-.026-.16c-.026-.131-.026-.237-.053-.37l-.026-.185-.027-.264-.026-.186c-.027-.132-.027-.238-.053-.37l-.027-.185-.026-.238-.027-.212-.026-.238c-.026-.106-.026-.238-.053-.344l-.026-.238-.027-.238-.026-.185-.027-.239-.026-.158-.08-.477-.026-.158-.053-.265-.026-.159-.08-.529-.026-.132-.053-.318-.027-.079-.158-1.032-.027-.08c-.08-.476-.159-.978-.238-1.454v-.053c-.212-1.244-.397-2.461-.609-3.599-.608-3.042-1.084-5.556-1.349-6.8z" fill="#f1dabb"/>
    <path d="M148.299 146.923s.635 25.956 1.587 33.602c.953 7.647 3.546 19.315 2.038 19.685-1.905.45-4.79-1.243-5.848-4.339-.29-.873-.079-1.667-.238-2.434-.423-1.932-.9-3.493-.502-4.419.555-1.27 1.19-5.265.238-8.969-.953-3.704-6.403-15.16-5.768-22.093.635-6.932 1.587-11.06 1.587-11.06-1.11-13.176-6.561-21.616-7.223-36.115l10.98-9.207 5.186 16.35c1.879 10.981-1.376 19.342-2.037 29" fill="#f1dabb"/>
    <path d="M146.288 57.309l6.588-2.143.291 2.09-.926-6.985h-4.789z" fill="#dec0a0"/>
    <path d="M154.067 52.335l-2.752 2.037a2.598 2.598 0 0 1-1.429.503 2.467 2.467 0 0 1-1.64-.503l-2.778-2.037a10.427 10.427 0 0 1-4.26-8.414v-7.303c0-4.71 3.81-8.546 8.546-8.546 3.255 0 6.06 1.8 7.514 4.472a8.47 8.47 0 0 1 1.032 4.074v7.33a10.577 10.577 0 0 1-4.233 8.387" fill="#f1dabb"/>
    <path d="M149.913 47.413c-.027 0-.08 0-.106-.026-.106-.053-.212-.132-.317-.212a1.367 1.367 0 0 0-.503-.211c-.106-.027-.238 0-.344-.08a.713.713 0 0 1-.238-.529c0-.159.053-.318.132-.45a.456.456 0 0 1 .159-.159c.053-.026.106.027.08.106-.027.053-.054.133-.08.185l-.08.239a.433.433 0 0 0 .053.317c.053.08.16.106.238.106.16 0 .318-.053.477 0 .158.053.29.212.476.265.159.026.291-.106.423-.186.133-.079.291-.026.424 0 .105.027.211 0 .29-.053.08-.053.133-.185.16-.317.026-.132-.053-.212-.08-.318-.026-.105 0-.211.08-.158.158.079.211.344.185.555-.053.238-.186.477-.37.53-.107.026-.186 0-.292 0a.557.557 0 0 0-.344.132c-.106.106-.264.238-.423.264M144.78 42.413s.714.238 1.482.106c.608-.106.9-.239.9-.239l.687-.158s-1.587-1.667-2.62-1.535c-1.005.132-1.693.9-1.693.9s.344.185.477.37c.158.185.423.476.767.556" fill="#dec0a0"/>
    <path d="M145.52 42.73a.855.855 0 0 0-.105.715c-.185-.186-.238-.477-.185-.715-.106 0-.212-.026-.318-.053a.813.813 0 0 0-.264.688.874.874 0 0 1-.053-.767c-.133-.053-.265-.106-.37-.159-.054.053-.106.08-.133.159a.776.776 0 0 0-.106.423c-.053-.159-.08-.317-.026-.476.026-.08.053-.159.08-.212-.107-.079-.213-.132-.292-.211a.922.922 0 0 0-.503.582.9.9 0 0 1 .08-.53c.053-.079.106-.158.185-.238a3.613 3.613 0 0 0-.556-.396s.741-.186.953-.37c.212-.186.317-.213.794-.45 0 0-.239.185-.45.476-.212.29-.318.423-.318.423s.609.9 1.456.767c5.662-.767.502.318.132.344M152.32 39.635a.367.367 0 0 0 .45.105c.688-.37 2.461-1.27 3.308-1.296 1.058-.026 2.593.714 2.593.714s-2.038-1.243-3.096-1.19c-.82.026-2.434.82-3.122 1.19a.359.359 0 0 0-.185.291c0 .08 0 .133.053.186zM148.299 39.635a.367.367 0 0 1-.45.105c-.688-.37-2.46-1.27-3.307-1.296-1.058-.026-2.593.714-2.593.714s2.037-1.243 3.096-1.19c.82.026 2.434.82 3.122 1.19a.359.359 0 0 1 .185.291c0 .08-.027.133-.053.186z" fill="#59110d"/>
    <path d="M146.606 49s.502.292 1.137.768c.556.45.9 1.006 2.117 1.058 1.376.053 1.852-.635 2.381-1.11.476-.424.9-.662.9-.662z" fill="#ee6794"/>
    <path d="M146.606 49s2.46-.687 2.778-.581c.45.158.476.211.608.238.238.026.397-.265.82-.185.424.079 2.302.635 2.302.635s-1.693.608-3.28.582c-1.482-.027-3.228-.688-3.228-.688" fill="#eb4a80"/>
    <path d="M155.363 42.413s-.714.238-1.481.106c-.609-.106-.9-.239-.9-.239l-.688-.158s1.588-1.667 2.62-1.535c1.005.132 1.693.9 1.693.9s-.344.185-.476.37c-.16.185-.424.476-.768.556" fill="#dec0a0"/>
    <path d="M154.622 42.73a.855.855 0 0 1 .106.715c.186-.186.238-.477.186-.715.105 0 .211-.026.317-.053a.813.813 0 0 1 .265.688.874.874 0 0 0 .053-.767c.132-.053.264-.106.37-.159.053.053.106.08.132.159.08.132.106.264.106.423.053-.159.08-.317.027-.476a1.823 1.823 0 0 0-.08-.212c.106-.079.212-.132.291-.211a.922.922 0 0 1 .503.582.9.9 0 0 0-.08-.53c-.052-.079-.105-.158-.185-.238.186-.158.37-.29.556-.396 0 0-.74-.186-.953-.37-.211-.186-.317-.213-.793-.45 0 0 .238.185.45.476.211.29.317.423.317.423s-.609.9-1.455.767c-5.662-.767-.503.318-.133.344" fill="#59110d"/>
    <path d="M140.361 41.698s4.287-5.424 5.504-8.255c0 0 4.63 4.154 13.229 8.308 0 0 .53-.74 1.164.027 0 0 1.164-15.425-10.319-14.923.027 0-11.43-1.27-10.662 14.685 0 0 .555-.318 1.084.158" fill="#604137"/>
    <path d="M158.274 41.328s.767-1.535 1.64-.503c.873 1.032.688 5.265-2.09 5.292.026 0 .423-3.784.45-4.79" fill="#f1dabb"/>
    <path d="M158.3 42.889s.556-1.508 1.138-.74c.556.766.291 1.772-.556 2.46-.053 0 .344-2.725-.582-1.72" fill="#edc1a3"/>
    <path d="M141.208 41.328s-.767-1.535-1.64-.503c-.873 1.032-.688 5.265 2.09 5.292-.053 0-.45-3.784-.45-4.79" fill="#f1dabb"/>
    <path d="M141.182 42.889s-.556-1.508-1.138-.74c-.556.766-.291 1.772.556 2.46.026 0-.344-2.725.582-1.72" fill="#edc1a3"/>
    <path d="M164.809 62.547c-2.223-1.957-8.414-3.122-8.414-3.122.82 8.335-6.826 11.563-6.826 11.563s-7.647-3.228-6.826-11.563c0 0-6.192 1.191-8.414 3.122-2.223 1.958-3.757 15.135-3.81 20.056 0 0 4.366 2.064 6.958 2.99 0 0 1.456-7.038 1.747-9.605l-1.905 21.458 23.071-4.657-.29-16.986c1.296 2.276 3.704 8.493 3.704 8.493 2.566-.9 5.953-3.572 5.953-3.572-.291-4.603-2.726-16.219-4.948-18.177" fill="#eda1c4"/>
    <path d="M132.345 82.92c-.794-.714-1.323-1.243-1.323-1.243.026-4.101 1.852-18.045 4.365-19.606.027-.026-2.54 10.875-3.042 20.85" fill="#e492bd"/>
    <path d="M158.3 59.849c-1.085-.265-1.825-.424-1.825-.424.82 8.335-6.827 9.843-6.827 9.843s-7.646-1.508-6.826-9.843c0 0-.74.16-1.826.424-.105 9.948 8.652 11.139 8.652 11.139 9.234-2.408 8.652-11.14 8.652-11.14z" fill="#f8dbe7"/>
    <path d="M167.825 81.545c.688-.715 1.138-1.244 1.138-1.244-.265-3.836-2.884-16.775-5.345-18.071.027 0 3.122 10.028 4.207 19.315" fill="#e492bd"/>
    <path d="M98.346 77.55c52.837-8.414 43.338-9.05 98.16 0V209.84c0 3.651-4.207 6.641-9.366 6.641h-81.227c-4.154 0-7.567-2.408-7.567-5.371z" fill="#f9acac"/>
    <path d="M134.514 98.372c-.45 7.382-3.572 14.367-4.498 21.722-1.534 12.277 3.175 24.448 3.52 36.83.105 4.128-.265 8.282.528 12.33.741 3.81 2.514 7.329 4.551 10.636.476.741.953 1.508 1.64 2.064 1.403 1.138 3.387 1.296 5.16 1.058 4.974-.688 9.42-4.339 11.033-9.101 1.64-4.79.53-10.028.714-15.108.265-7.012 3.096-13.706 3.758-20.69 1.005-10.557-2.964-21.194-1.561-31.698.45-3.307 1.428-6.535 1.455-9.869.053-4.445-1.561-8.73-2.54-13.096-.98-4.34-1.27-9.208 1.137-12.965 1.138-1.746 3.096-3.228 5.133-2.858 2.408.424 3.705 2.964 5.424 4.684a9.344 9.344 0 0 0 4.948 2.513c3.096.503 7.09-.264 8.678 2.434 1.561 2.62-.846 5.715-2.672 8.15a26.012 26.012 0 0 0-4.842 11.27c-1.032 6.166.185 12.463-.159 18.707-.423 7.461-3.069 14.605-4.233 21.987-1.058 6.64-.952 13.414-2.196 20.029-1.376 7.355-4.471 14.499-4.207 21.96.132 4.34 1.27 9.234-1.402 12.674-1.164 1.481-2.858 2.407-4.524 3.28-3.837 2.011-7.885 3.943-12.224 4.101-3.202.106-6.35-.767-9.393-1.746-2.222-.714-4.445-1.481-6.35-2.83-3.969-2.779-6.032-7.62-6.826-12.383-.794-4.79-.53-9.658-.873-14.5-1.085-15.292-8.388-30.056-6.827-45.323 1.138-11.192 7.038-22.198 4.578-33.205-1.112-4.868-3.81-9.975-1.852-14.578 1.905-4.445 14.525-10.16 14.949-2.461.238 4.154-1.112 8.44-.768 12.753.318 4.392 1.006 8.784.741 13.23z" fill="#f89898"/>
    <path d="M98.028 67.336a1.942 1.942 0 0 0-1.931 1.932v8.652c0 1.058.873 1.931 1.931 1.931 7.7-1.085 14.129-2.037 19.632-2.804.556-4.154 2.223-8.044 4.34-11.721-6.404.502-14.13 1.19-23.972 2.01z" fill="#fff"/>
    <path d="M132 64.505c-2.99.212-6.27.477-10 .768-2.117 3.677-3.784 7.567-4.34 11.72 6.959-.978 12.436-1.719 17.198-2.222-2.328-2.963-3.175-6.667-2.857-10.266z" fill="#eee"/>
    <path d="M169.624 65.035c-16.404-1.297-23.76-1.482-37.623-.53-.318 3.572.529 7.303 2.857 10.293 12.012-1.217 19.394-.847 34.21 1.111.742-3.519.794-7.197.556-10.874z" fill="#fff"/>
    <path d="M183.647 66.225c-5.397-.45-9.975-.846-14.023-1.164.238 3.678.186 7.329-.555 10.874 4.471.582 9.604 1.323 15.716 2.196 1.614-3.968 1.508-8.413-1.138-11.906z" fill="#eee"/>
    <path d="M196.824 67.336c-4.869-.423-9.234-.793-13.177-1.11 2.646 3.492 2.752 7.937 1.138 11.905 3.625.53 7.62 1.085 12.039 1.72a1.942 1.942 0 0 0 1.931-1.931v-8.652a1.942 1.942 0 0 0-1.931-1.932z" fill="#fff"/>
    <path d="M0 6.853h83.476v52.334H0z" fill="#935618"/>
    <g fill="#7f4a14">
      <path d="M49.583 43.577l-3.651-1.8-3.334-1.64a1.037 1.037 0 0 0-1.35.45l-6.35 12.965a1.037 1.037 0 0 0 .45 1.349l7.012 3.413a1.037 1.037 0 0 0 1.35-.45L50.06 44.9c.237-.476.026-1.085-.477-1.323zM30.798 18.733l-18.363 2.513-2.857.397 3.81 27.966.185 1.403 2.884-.397L34.82 48.1l-.185-1.376zM81.862 31.909c0-9.26-7.514-16.775-16.775-16.775-9.26 0-16.774 7.514-16.774 16.775 0 6.35 3.519 11.853 8.705 14.71 2.804 2.09 10.027 1.932 10.027 1.932 8.361-.979 14.817-8.043 14.817-16.642z"/>
    </g>
    <g>
      <path d="M40.746 38.312l7.011 3.413a.983.983 0 0 1 .45 1.35l-6.35 12.964a.983.983 0 0 1-1.35.45l-7.01-3.414a.983.983 0 0 1-.45-1.349l6.35-12.965c.238-.476.846-.687 1.349-.45" fill="#edeeee"/>
      <path d="M44.08 39.952l3.65 1.8a.983.983 0 0 1 .45 1.349l-4.127 8.44z" fill="#dbdcdc"/>
      <path d="M41.298 55.258l-7.251-3.543 5.947-12.172 7.25 3.543z" fill="#485157"/>
      <path d="M44.08 41.566l3.148 1.535-3.148 6.429z" fill="#363f44"/>
    </g>
    <g>
      <path d="M32.96 46.243L11.724 49.14 7.719 19.78l21.234-2.898z" fill="#983b35"/>
      <path d="M32.96 46.259l-18.376 2.507-4.006-29.36 18.376-2.508z" fill="#c3594f"/>
      <path d="M10.583 19.394l21.114 17.568-2.752-20.082z" fill="#b2463d"/>
      <path d="M11.721 49.16l20.135-2.752 1.111-.159-.185-1.376-3.837-27.993-1.084.16 3.81 27.966-20.135 2.751z" fill="#fff"/>
    </g>
    <g>
      <path d="M61.833 25.109a2.806 2.806 0 0 1 2.805 2.805 2.806 2.806 0 0 1-2.805 2.804 2.806 2.806 0 0 1-2.804-2.804c-.027-1.535 1.243-2.805 2.804-2.805" fill="#653b11"/>
      <path d="M59.849 9.895c9.26 0 16.774 7.515 16.774 16.775 0 9.26-7.514 16.775-16.774 16.775-9.26 0-16.775-7.515-16.775-16.775.027-9.26 7.514-16.775 16.775-16.775" fill="#e68d4a"/>
      <path d="M59.849 9.895c9.26 0 16.774 7.515 16.774 16.775H59.85zM43.1 26.67h16.775v16.775c-9.287-.027-16.774-7.541-16.774-16.775" fill="#e2772b"/>
      <path d="M59.849 23.839a2.806 2.806 0 0 1 2.804 2.805 2.806 2.806 0 0 1-2.804 2.804 2.806 2.806 0 0 1-2.805-2.804 2.823 2.823 0 0 1 2.805-2.805" fill="#cf671c"/>
    </g>
    <g>
      <path d="M36.539 125.624s-10.61 1.323-12.356 1.693c-1.746.397-8.917 1.826-12.224.186-3.307-1.667-6.032-3.81-6.323-7.7-.318-3.916 3.942-4.868 3.942-4.868s4.233-1.376 8.996-.661c4.762.714 10.133.873 14.843.396 4.71-.476 9.207-1.27 10.477 4.022 1.244 5.265-3.915 6.482-7.355 6.932" fill="#f9acac"/>
      <path d="M28.945 125.386l2.064-.132s-2.54 1.931-5.106.767c0 0 2.487.291 3.042-.635M30.057 116.126l-2.064.105s-2.434-1.375-2.62-1.428c0 0 1.191-.397 2.17.211 1.006.609 2.25 1.006 2.514 1.112" fill="#8b2e1b"/>
      <path d="M27.966 126.26l-1.931.21s-3.942-.21-4.683-5.661l1.35.08s1.243 5.37 5.264 5.37M21.352 118.983s.37-3.625 2.62-4.313h2.698s-2.884-.37-3.969 4.313z" fill="#ae3d3b"/>
      <path d="M22.49 121.232l-11.06-.53s-1.826-1.11 0-2.354l11.06.318s.45 1.508 0 2.566" fill="#ae3d3b"/>
      <path d="M36.142 99.192s-10.663-.608-12.435-.9c-1.773-.29-9.023-1.243-12.224.636-3.202 1.878-5.768 4.18-5.82 8.096-.054 3.916 4.232 4.604 4.232 4.604s4.313 1.084 9.023.08c4.71-1.033 10.054-1.536 14.79-1.35 4.736.185 9.287.661 10.186-4.683.953-5.371-4.286-6.271-7.752-6.483" fill="#f9acac"/>
      <path d="M28.443 100.012h2.063s-2.672-1.746-5.132-.423c-.027 0 2.434-.476 3.069.423M30.268 109.14l-2.063.027s-2.355 1.535-2.514 1.588c0 0 1.217.317 2.17-.344.952-.662 2.143-1.138 2.407-1.27" fill="#8b2e1b"/>
      <path d="M22.384 104.484l-11.007 1.243s-1.746 1.244.159 2.355l11.033-1.058c0 .026.344-1.508-.185-2.54" fill="#ae3d3b"/>
      <path d="M21.405 106.786s.608 3.598 2.91 4.154l2.672-.185s-2.857.555-4.233-4.049zM27.543 99.113l-1.931-.08s-3.916.477-4.313 5.954l1.323-.16s.9-5.45 4.921-5.714" fill="#ae3d3b"/>
    </g>
  </g>
</svg>
