<svg xmlns="http://www.w3.org/2000/svg" width="187.734" height="63.644" viewBox="0 0 176 59.667">
  <defs>
    <clipPath id="f">
      <path d="M9370.36 3542.3c0 15.65-12.7 28.35-28.35 28.35h-1168.3c-15.66 0-28.35-12.7-28.35-28.35V3504c0-15.66 12.69-28.35 28.35-28.35h1168.3c15.65 0 28.35 12.69 28.35 28.35z"/>
    </clipPath>
    <clipPath id="e">
      <path d="M9412.86 3553.15c0-17.95-14.55-32.5-32.5-32.5s-32.5 14.55-32.5 32.5v265c0 17.95 14.55 32.5 32.5 32.5s32.5-14.55 32.5-32.5z"/>
    </clipPath>
    <clipPath id="d">
      <path d="M9360.36 3597.34c0-31.31-25.38-56.69-56.69-56.69h-286.62c-31.31 0-56.69 25.38-56.69 56.69v251.62c0 31.31 25.38 56.69 56.69 56.69h286.62c31.31 0 56.69-25.38 56.69-56.69z"/>
    </clipPath>
    <clipPath id="c">
      <path d="M8960.36 3597.34c0-31.31-25.38-56.69-56.69-56.69h-286.62c-31.31 0-56.69 25.38-56.69 56.69v251.62c0 31.31 25.38 56.69 56.69 56.69h286.62c31.31 0 56.69-25.38 56.69-56.69z"/>
    </clipPath>
    <clipPath id="b">
      <path d="M8175.36 3553.15c0-17.95-14.55-32.5-32.5-32.5s-32.5 14.55-32.5 32.5v265c0 17.95 14.55 32.5 32.5 32.5s32.5-14.55 32.5-32.5z"/>
    </clipPath>
    <clipPath id="a">
      <path d="M8560.36 3597.34c0-31.31-25.38-56.69-56.69-56.69h-286.62c-31.31 0-56.69 25.38-56.69 56.69v251.62c0 31.31 25.38 56.69 56.69 56.69h286.62c31.31 0 56.69-25.38 56.69-56.69z"/>
    </clipPath>
  </defs>
  <g fill="#89909e" stroke="#000">
    <g clip-path="url(#a)" transform="matrix(.13333 0 0 -.13333 -1080.215 521.92)">
      <path d="M8560.36 3597.34c0-31.31-25.38-56.69-56.69-56.69h-286.62c-31.31 0-56.69 25.38-56.69 56.69v251.62c0 31.31 25.38 56.69 56.69 56.69h286.62c31.31 0 56.69-25.38 56.69-56.69v-251.62"/>
    </g>
    <path d="M61.167 42.275H60.5c0 1.905-.77 3.624-2.019 4.873a6.867 6.867 0 0 1-4.873 2.019H15.392a6.867 6.867 0 0 1-4.873-2.019A6.862 6.862 0 0 1 8.5 42.275V8.725c0-1.905.77-3.624 2.019-4.873a6.873 6.873 0 0 1 4.873-2.019h38.216c1.905 0 3.624.771 4.873 2.019A6.872 6.872 0 0 1 60.5 8.725v33.55H61.833V8.725A8.226 8.226 0 0 0 53.608.5H15.392a8.225 8.225 0 0 0-8.225 8.225v33.55a8.224 8.224 0 0 0 8.225 8.225h38.216a8.225 8.225 0 0 0 8.225-8.225h-.666"/>
    <g clip-path="url(#b)" transform="matrix(.13333 0 0 -.13333 -1080.215 521.92)">
      <path d="M8175.36 3553.15c0-17.95-14.55-32.5-32.5-32.5s-32.5 14.55-32.5 32.5v265c0 17.95 14.55 32.5 32.5 32.5s32.5-14.55 32.5-32.5v-265"/>
    </g>
    <path d="M9.833 48.167h-.666A3.67 3.67 0 0 1 5.5 51.833a3.668 3.668 0 0 1-3.667-3.666V12.833A3.67 3.67 0 0 1 5.5 9.167a3.67 3.67 0 0 1 3.667 3.666v35.334H10.5V12.833a5.001 5.001 0 0 0-10 0v35.334a5 5 0 0 0 10 0h-.667"/>
    <g clip-path="url(#c)" transform="matrix(.13333 0 0 -.13333 -1080.215 521.92)">
      <path d="M8960.36 3597.34c0-31.31-25.38-56.69-56.69-56.69h-286.62c-31.31 0-56.69 25.38-56.69 56.69v251.62c0 31.31 25.38 56.69 56.69 56.69h286.62c31.31 0 56.69-25.38 56.69-56.69v-251.62"/>
    </g>
    <path d="M114.5 42.275h-.667c0 1.905-.77 3.624-2.018 4.873a6.867 6.867 0 0 1-4.874 2.019H68.725a6.867 6.867 0 0 1-4.873-2.019 6.861 6.861 0 0 1-2.019-4.873V8.725c0-1.905.77-3.624 2.019-4.873a6.873 6.873 0 0 1 4.873-2.019h38.216c1.906 0 3.624.771 4.874 2.019a6.873 6.873 0 0 1 2.018 4.873v33.55h1.334V8.725A8.226 8.226 0 0 0 106.94.5H68.725A8.225 8.225 0 0 0 60.5 8.725v33.55a8.224 8.224 0 0 0 8.225 8.225h38.216a8.225 8.225 0 0 0 8.226-8.225h-.667"/>
    <g clip-path="url(#d)" transform="matrix(.13333 0 0 -.13333 -1080.215 521.92)">
      <path d="M9360.36 3597.34c0-31.31-25.38-56.69-56.69-56.69h-286.62c-31.31 0-56.69 25.38-56.69 56.69v251.62c0 31.31 25.38 56.69 56.69 56.69h286.62c31.31 0 56.69-25.38 56.69-56.69v-251.62"/>
    </g>
    <path d="M167.833 42.275h-.666c0 1.905-.771 3.624-2.019 4.873a6.867 6.867 0 0 1-4.873 2.019h-38.216a6.867 6.867 0 0 1-4.874-2.019 6.861 6.861 0 0 1-2.018-4.873V8.725c0-1.905.769-3.624 2.018-4.873a6.873 6.873 0 0 1 4.874-2.019h38.216c1.905 0 3.624.771 4.873 2.019a6.872 6.872 0 0 1 2.019 4.873v33.55H168.5V8.725A8.226 8.226 0 0 0 160.275.5h-38.216a8.225 8.225 0 0 0-8.226 8.225v33.55a8.224 8.224 0 0 0 8.226 8.225h38.216a8.225 8.225 0 0 0 8.225-8.225h-.667"/>
    <g clip-path="url(#e)" transform="matrix(.13333 0 0 -.13333 -1080.215 521.92)">
      <path d="M9412.86 3553.15c0-17.95-14.55-32.5-32.5-32.5s-32.5 14.55-32.5 32.5v265c0 17.95 14.55 32.5 32.5 32.5s32.5-14.55 32.5-32.5v-265"/>
    </g>
    <path d="M174.833 48.167h-.666a3.67 3.67 0 0 1-3.667 3.666 3.668 3.668 0 0 1-3.667-3.666V12.833a3.67 3.67 0 0 1 3.667-3.666 3.67 3.67 0 0 1 3.667 3.666v35.334H175.5V12.833a5.001 5.001 0 0 0-10 0v35.334a5 5 0 0 0 10 0h-.667"/>
    <g clip-path="url(#f)" transform="matrix(.13333 0 0 -.13333 -1080.215 521.92)">
      <path d="M9370.36 3542.3c0 15.65-12.7 28.35-28.35 28.35h-1168.3c-15.66 0-28.35-12.7-28.35-28.35V3504c0-15.66 12.69-28.35 28.35-28.35h1168.3c15.65 0 28.35 12.69 28.35 28.35v38.3"/>
    </g>
    <path d="M169.167 49.613h.666a4.448 4.448 0 0 0-4.446-4.446H9.613a4.446 4.446 0 0 0-4.446 4.446v5.107a4.447 4.447 0 0 0 4.446 4.447h155.774a4.448 4.448 0 0 0 4.446-4.447v-5.107H168.5v5.107a3.116 3.116 0 0 1-3.113 3.113H9.613A3.116 3.116 0 0 1 6.5 54.72v-5.107A3.117 3.117 0 0 1 9.613 46.5h155.774a3.117 3.117 0 0 1 3.113 3.113h.667"/>
  </g>
</svg>