<svg xmlns="http://www.w3.org/2000/svg" viewBox="0 0 182.091 177.291" height="189.111" width="194.23">
    <defs>
        <clipPath id="l">
            <path d="M7548.71 2898.3c13.68 0 24.76 11.23 24.76 25.08v42.74c0 13.84-11.08 25.08-24.76 25.08h-277.87c-13.67 0-24.74-11.24-24.74-25.08v-42.74c0-13.85 11.07-25.08 24.74-25.08h277.87z"/>
        </clipPath>
        <clipPath id="k">
            <path d="M8430.27 2147.72c0 13.68-11.24 24.75-25.08 24.75h-42.74c-13.86 0-25.09-11.07-25.09-24.75v-277.88c0-13.67 11.23-24.75 25.09-24.75h42.74c13.84 0 25.08 11.08 25.08 24.75v277.88z"/>
        </clipPath>
        <clipPath id="j">
            <path d="M8350.2 1754.4c13.68 0 24.76 11.23 24.76 25.08v42.74c0 13.85-11.08 25.08-24.76 25.08h-277.87c-13.67 0-24.74-11.23-24.74-25.08v-42.74c0-13.85 11.07-25.08 24.74-25.08h277.87z"/>
        </clipPath>
        <clipPath id="i">
            <path d="M8320.38 2205.65c27.7 0 50.16-22.47 50.16-50.16v-253.61c0-27.69-22.46-50.15-50.16-50.15h-222.64c-27.7 0-50.15 22.46-50.15 50.15v253.61c0 27.69 22.45 50.16 50.15 50.16h222.64z"/>
        </clipPath>
        <clipPath id="h">
            <path d="M7158.36 2620.38c0-14.04 11.23-25.42 25.08-25.42h42.74c13.85 0 25.08 11.38 25.08 25.42v285.39c0 14.03-11.23 25.42-25.08 25.42h-42.74c-13.85 0-25.08-11.39-25.08-25.42v-285.39z"/>
        </clipPath>
        <clipPath id="g">
            <path d="M7609.61 2649.54c0-27.7-22.46-50.15-50.16-50.15h-253.6c-27.71 0-50.16 22.45-50.16 50.15v222.64c0 27.7 22.45 50.16 50.16 50.16h253.6c27.7 0 50.16-22.46 50.16-50.16v-222.64z"/>
        </clipPath>
        <clipPath id="f">
            <path d="M8025.37 1752.19c14.95 0 27.08 11.23 27.08 25.08v42.74c0 13.85-12.13 25.08-27.08 25.08H7721.2c-14.95 0-27.09-11.23-27.09-25.08v-42.74c0-13.85 12.14-25.08 27.09-25.08h304.17z"/>
        </clipPath>
        <clipPath id="e">
            <path d="M7990.79 2203.44c27.7 0 50.16-22.47 50.16-50.16v-253.61c0-27.7-22.46-50.15-50.16-50.15h-222.63c-27.71 0-50.16 22.45-50.16 50.15v253.61c0 27.69 22.45 50.16 50.16 50.16h222.63z"/>
        </clipPath>
        <clipPath id="d">
            <path d="M7162.78 2268.13c0-14.96 11.23-27.09 25.09-27.09h42.73c13.85 0 25.09 12.13 25.09 27.09v304.16c0 14.96-11.24 27.1-25.09 27.1h-42.73c-13.86 0-25.09-12.14-25.09-27.1v-304.16z"/>
        </clipPath>
        <clipPath id="c">
            <path d="M7614.03 2317.74c0-27.7-22.46-50.15-50.16-50.15h-253.6c-27.7 0-50.16 22.45-50.16 50.15v222.64c0 27.69 22.46 50.16 50.16 50.16h253.6c27.7 0 50.16-22.47 50.16-50.16v-222.64z"/>
        </clipPath>
        <clipPath id="b">
            <path d="M7724.63 2186.04c-52.78 0-97.15 35.58-110.69 84.05h-317.39c-39.08 0-70.76-31.68-70.76-70.77 0 0-33.98-384.9 428.59-384.9 39.08 0 70.76 31.68 70.76 70.77v300.87l-.51-.02z"/>
        </clipPath>
        <clipPath id="a">
            <path d="M7724.63 2190.46c-51.18 0-94.49 33.43-109.42 79.63H7238.3c-44.4 0-80.38-35.99-80.38-80.39 0 0-38.6-437.22 486.84-437.22 44.4 0 80.38 35.99 80.38 80.4v356.82l-.04.78-.47-.02z"/>
        </clipPath>
    </defs>
    <g fill="#89909e" stroke="#000">
        <g clip-path="url(#a)" transform="matrix(.14128 0 0 -.14128 -1010.02 423.708)">
            <path d="M7724.63 2190.46c-51.18 0-94.49 33.43-109.42 79.63H7238.3c-44.4 0-80.38-35.99-80.38-80.39 0 0-38.6-437.22 486.84-437.22 44.4 0 80.38 35.99 80.38 80.4v356.82l-.04.78-.47-.02"/>
        </g>
        <path d="M81.277 114.25v-.624c-6.95.001-12.835-4.543-14.864-10.817l-.14-.434H12.571c-6.618.002-11.982 5.364-11.982 11.983h.626l-.623-.055C.59 114.32.5 115.35.5 117.139c.003 6.084 1.038 20.95 10.274 34.36 9.232 13.417 26.712 25.266 59.22 25.251 6.616 0 11.98-5.362 11.98-11.983v-50.426l-.006-.127-.034-.625-.692.038.035.623v-.624.624l.034.625.068-.002-.036-.625-.623.034.004.095v50.391a10.7 10.7 0 0 1-3.142 7.59 10.695 10.695 0 0 1-7.589 3.143c-32.216-.013-49.17-11.643-58.191-24.711-9.018-13.076-10.055-27.704-10.053-33.65 0-.875.022-1.559.044-2.025.01-.231.022-.41.03-.528.01-.119.013-.174.013-.174l.002-.027v-.028c0-2.967 1.201-5.645 3.144-7.588a10.691 10.691 0 0 1 7.588-3.145h53.248v-.624l-.595.192c2.191 6.778 8.546 11.682 16.053 11.682h.034l-.034-.624"/>
        <g clip-path="url(#b)" transform="matrix(.14128 0 0 -.14128 -1010.02 423.708)">
            <path d="M7724.63 2186.04c-52.78 0-97.15 35.58-110.69 84.05h-317.39c-39.08 0-70.76-31.68-70.76-70.77 0 0-33.98-384.9 428.59-384.9 39.08 0 70.76 31.68 70.76 70.77v300.87l-.51-.02"/>
        </g>
        <path d="M81.277 114.875v-.625c-7.168.001-13.197-4.834-15.036-11.417l-.127-.458H20.8c-5.867.002-10.621 4.757-10.621 10.624h.624l-.623-.054c0 .016-.08.925-.08 2.502 0 5.364.914 18.465 9.057 30.29 8.14 11.834 23.56 22.277 52.195 22.264 5.867 0 10.623-4.756 10.623-10.624v-43.162l-.73.037.032.623v-.625.625l.031.626.074-.004-.033-.625h-.624v42.506a9.344 9.344 0 0 1-2.745 6.628 9.341 9.341 0 0 1-6.628 2.745c-28.344-.014-43.238-10.24-51.167-21.722-7.925-11.491-8.84-24.356-8.835-29.582 0-.765.018-1.369.038-1.777.01-.205.019-.36.027-.465l.011-.15.001-.028V113c0-2.59 1.049-4.93 2.745-6.627a9.348 9.348 0 0 1 6.628-2.747h44.839v-.624l-.602.17c1.986 7.108 8.496 12.329 16.24 12.33h.03l-.03-.626"/>
        <g clip-path="url(#c)" transform="matrix(.14128 0 0 -.14128 -1010.02 423.708)">
            <path d="M7614.03 2317.74c0-27.7-22.46-50.15-50.16-50.15h-253.6c-27.7 0-50.16 22.45-50.16 50.15v222.64c0 27.69 22.46 50.16 50.16 50.16h253.6c27.7 0 50.16-22.47 50.16-50.16v-222.64"/>
        </g>
        <path d="M65.652 96.269h-.625a6.444 6.444 0 0 1-1.893 4.569 6.437 6.437 0 0 1-4.568 1.891H22.738a6.44 6.44 0 0 1-4.569-1.891 6.433 6.433 0 0 1-1.891-4.57V64.816c0-1.785.72-3.397 1.891-4.568a6.44 6.44 0 0 1 4.57-1.892h35.827c1.787 0 3.397.722 4.568 1.892a6.446 6.446 0 0 1 1.893 4.568V96.27h1.25V64.815a7.713 7.713 0 0 0-7.711-7.71H22.738a7.711 7.711 0 0 0-7.71 7.71V96.27a7.71 7.71 0 0 0 7.71 7.71h35.828c4.259 0 7.71-3.45 7.712-7.71h-.626"/>
        <g clip-path="url(#d)" transform="matrix(.14128 0 0 -.14128 -1010.02 423.708)">
            <path d="M7162.78 2268.13c0-14.96 11.23-27.09 25.09-27.09h42.73c13.85 0 25.09 12.13 25.09 27.09v304.16c0 14.96-11.24 27.1-25.09 27.1h-42.73c-13.86 0-25.09-12.14-25.09-27.1v-304.16"/>
        </g>
        <path d="M1.902 103.278h-.625c0 1.213.455 2.322 1.204 3.13.746.808 1.8 1.323 2.965 1.321h6.037c1.164.001 2.218-.513 2.964-1.32a4.598 4.598 0 0 0 1.205-3.131v-42.97a4.595 4.595 0 0 0-1.205-3.131c-.746-.81-1.8-1.323-2.964-1.323H5.446a4.03 4.03 0 0 0-2.965 1.323 4.594 4.594 0 0 0-1.204 3.13v42.97h1.25v-42.97c0-.9.338-1.705.872-2.281.535-.577 1.253-.92 2.047-.921h6.037c.792 0 1.51.344 2.047.92.535.577.872 1.382.872 2.282v42.97c0 .9-.337 1.704-.872 2.282-.537.577-1.255.921-2.047.921H5.446c-.794 0-1.512-.344-2.047-.92a3.354 3.354 0 0 1-.872-2.282h-.625"/>
        <g clip-path="url(#e)" transform="matrix(.14128 0 0 -.14128 -1010.02 423.708)">
            <path d="M7990.79 2203.44c27.7 0 50.16-22.47 50.16-50.16v-253.61c0-27.7-22.46-50.15-50.16-50.15h-222.63c-27.71 0-50.16 22.45-50.16 50.15v253.61c0 27.69 22.45 50.16 50.16 50.16h222.63"/>
        </g>
        <path d="M118.879 112.417v.624a6.453 6.453 0 0 1 4.568 1.893 6.44 6.44 0 0 1 1.892 4.569v35.829a6.442 6.442 0 0 1-1.892 4.569 6.439 6.439 0 0 1-4.568 1.891H87.427a6.437 6.437 0 0 1-4.57-1.891 6.431 6.431 0 0 1-1.892-4.57v-35.828c0-1.786.72-3.398 1.893-4.569a6.45 6.45 0 0 1 4.569-1.893h31.452v-1.249H87.427a7.71 7.71 0 0 0-7.713 7.711v35.829a7.71 7.71 0 0 0 7.713 7.71h31.452a7.711 7.711 0 0 0 7.71-7.71v-35.829a7.712 7.712 0 0 0-7.71-7.71v.624"/>
        <g clip-path="url(#f)" transform="matrix(.14128 0 0 -.14128 -1010.02 423.708)">
            <path d="M8025.37 1752.19c14.95 0 27.08 11.23 27.08 25.08v42.74c0 13.85-12.13 25.08-27.08 25.08H7721.2c-14.95 0-27.09-11.23-27.09-25.08v-42.74c0-13.85 12.14-25.08 27.09-25.08h304.17"/>
        </g>
        <path d="M123.764 176.167v.624a4.593 4.593 0 0 0 3.13-1.203c.809-.746 1.322-1.8 1.322-2.964v-6.038c0-1.164-.513-2.218-1.323-2.964a4.601 4.601 0 0 0-3.13-1.205h-42.97a4.603 4.603 0 0 0-3.131 1.205c-.808.746-1.323 1.8-1.323 2.964v6.038c0 1.164.515 2.218 1.323 2.964a4.597 4.597 0 0 0 3.13 1.203h42.972v-1.248H80.792a3.351 3.351 0 0 1-2.281-.872c-.577-.537-.92-1.255-.921-2.047v-6.038c0-.793.344-1.51.92-2.046a3.352 3.352 0 0 1 2.282-.873h42.972c.898 0 1.704.339 2.282.873.575.535.92 1.253.92 2.046v6.038c0 .792-.345 1.51-.92 2.047a3.354 3.354 0 0 1-2.282.872v.624"/>
        <g clip-path="url(#g)" transform="matrix(.14128 0 0 -.14128 -1010.02 423.708)">
            <path d="M7609.61 2649.54c0-27.7-22.46-50.15-50.16-50.15h-253.6c-27.71 0-50.16 22.45-50.16 50.15v222.64c0 27.7 22.45 50.16 50.16 50.16h253.6c27.7 0 50.16-22.46 50.16-50.16v-222.64"/>
        </g>
        <path d="M65.027 49.394h-.625a6.44 6.44 0 0 1-1.892 4.569 6.44 6.44 0 0 1-4.569 1.891H22.114a6.437 6.437 0 0 1-4.57-1.891 6.429 6.429 0 0 1-1.892-4.57V17.94c0-1.785.72-3.397 1.893-4.568a6.437 6.437 0 0 1 4.569-1.892H57.94a6.44 6.44 0 0 1 4.569 1.892 6.44 6.44 0 0 1 1.892 4.568v31.454h1.25V17.94a7.713 7.713 0 0 0-7.71-7.71H22.113a7.711 7.711 0 0 0-7.712 7.71v31.454a7.71 7.71 0 0 0 7.712 7.71H57.94a7.711 7.711 0 0 0 7.71-7.71h-.624"/>
        <g clip-path="url(#h)" transform="matrix(.14128 0 0 -.14128 -1010.02 423.708)">
            <path d="M7158.36 2620.38c0-14.04 11.23-25.42 25.08-25.42h42.74c13.85 0 25.08 11.38 25.08 25.42v285.39c0 14.03-11.23 25.42-25.08 25.42h-42.74c-13.85 0-25.08-11.39-25.08-25.42v-285.39"/>
        </g>
        <path d="M1.277 53.513H.651c.004 2.324 1.86 4.215 4.17 4.216h6.037c2.309 0 4.164-1.892 4.17-4.216V13.195c-.007-2.323-1.861-4.213-4.17-4.216H4.82C2.512 8.981.655 10.872.651 13.195v40.318h1.25V13.195c0-1.643 1.314-2.963 2.92-2.965h6.037c1.605.002 2.918 1.322 2.92 2.965v40.318c-.002 1.645-1.315 2.963-2.92 2.966H4.82c-1.605-.002-2.918-1.321-2.918-2.966h-.625"/>
        <g clip-path="url(#i)" transform="matrix(.14128 0 0 -.14128 -1010.02 423.708)">
            <path d="M8320.38 2205.65c27.7 0 50.16-22.47 50.16-50.16v-253.61c0-27.69-22.46-50.15-50.16-50.15h-222.64c-27.7 0-50.15 22.46-50.15 50.15v253.61c0 27.69 22.45 50.16 50.15 50.16h222.64"/>
        </g>
        <path d="M165.441 112.104v.625a6.439 6.439 0 0 1 4.568 1.893 6.44 6.44 0 0 1 1.893 4.569v35.829a6.441 6.441 0 0 1-1.893 4.568 6.433 6.433 0 0 1-4.568 1.892h-31.453a6.442 6.442 0 0 1-4.569-1.892 6.436 6.436 0 0 1-1.892-4.568v-35.83c0-1.785.721-3.397 1.892-4.568a6.449 6.449 0 0 1 4.569-1.893h31.453v-1.249h-31.453a7.71 7.71 0 0 0-7.71 7.71v35.83a7.71 7.71 0 0 0 7.71 7.71h31.453a7.711 7.711 0 0 0 7.711-7.71v-35.83a7.711 7.711 0 0 0-7.71-7.71v.624"/>
        <g clip-path="url(#j)" transform="matrix(.14128 0 0 -.14128 -1010.02 423.708)">
            <path d="M8350.2 1754.4c13.68 0 24.76 11.23 24.76 25.08v42.74c0 13.85-11.08 25.08-24.76 25.08h-277.87c-13.67 0-24.74-11.23-24.74-25.08v-42.74c0-13.85 11.07-25.08 24.74-25.08h277.87"/>
        </g>
        <path d="M169.654 175.855v.624c2.285 0 4.118-1.872 4.123-4.167v-6.039c-.004-2.295-1.838-4.166-4.123-4.169h-39.256c-2.283.002-4.117 1.874-4.12 4.17v6.038c.003 2.295 1.837 4.166 4.12 4.167h39.256v-1.249h-39.256c-1.58-.003-2.87-1.3-2.87-2.918v-6.039c0-1.617 1.29-2.915 2.87-2.918h39.256c1.581.002 2.872 1.3 2.874 2.918v6.039c-.001 1.617-1.293 2.915-2.874 2.918v.625"/>
        <g clip-path="url(#k)" transform="matrix(.14128 0 0 -.14128 -1010.02 423.708)">
            <path d="M8430.27 2147.72c0 13.68-11.24 24.75-25.08 24.75h-42.74c-13.86 0-25.09-11.07-25.09-24.75v-277.88c0-13.67 11.23-24.75 25.09-24.75h42.74c13.84 0 25.08 11.08 25.08 24.75v277.88"/>
        </g>
        <path d="M180.966 120.288h.625c-.001-2.284-1.874-4.118-4.168-4.122l-6.038.001c-2.296.002-4.168 1.837-4.17 4.121v39.258c.002 2.283 1.874 4.115 4.17 4.12h6.038c2.294-.004 4.166-1.837 4.168-4.12v-39.258h-1.25v39.258c-.004 1.578-1.302 2.87-2.918 2.87h-6.038c-1.62 0-2.916-1.292-2.919-2.87v-39.258c.002-1.58 1.3-2.872 2.919-2.872h6.038c1.616 0 2.915 1.291 2.917 2.872h.626"/>
        <g clip-path="url(#l)" transform="matrix(.14128 0 0 -.14128 -1010.02 423.708)">
            <path d="M7548.71 2898.3c13.68 0 24.76 11.23 24.76 25.08v42.74c0 13.84-11.08 25.08-24.76 25.08h-277.87c-13.67 0-24.74-11.24-24.74-25.08v-42.74c0-13.85 11.07-25.08 24.74-25.08h277.87"/>
        </g>
        <path d="M56.424 14.25v.625c2.284 0 4.118-1.872 4.122-4.168V4.67C60.542 2.375 58.708.501 56.424.5H17.168c-2.283.001-4.117 1.875-4.121 4.169v6.038c.004 2.296 1.838 4.168 4.12 4.168h39.257v-1.25H17.168c-1.58-.001-2.871-1.3-2.871-2.918V4.67c0-1.618 1.291-2.914 2.87-2.919h39.257c1.58.004 2.872 1.301 2.873 2.919v6.038c0 1.618-1.292 2.916-2.873 2.919v.624"/>
    </g>
</svg>