<?xml version="1.0" encoding="UTF-8" standalone="no"?>
<!-- Created with Inkscape (http://www.inkscape.org/) -->

<svg
   xmlns:dc="http://purl.org/dc/elements/1.1/"
   xmlns:cc="http://creativecommons.org/ns#"
   xmlns:rdf="http://www.w3.org/1999/02/22-rdf-syntax-ns#"
   xmlns:svg="http://www.w3.org/2000/svg"
   xmlns="http://www.w3.org/2000/svg"
   xmlns:sodipodi="http://sodipodi.sourceforge.net/DTD/sodipodi-0.dtd"
   xmlns:inkscape="http://www.inkscape.org/namespaces/inkscape"
   width="424.2341mm"
   height="261.74533mm"
   viewBox="0 0 424.2341 261.74533"
   version="1.1"
   id="svg9584"
   inkscape:version="0.92.3 (2405546, 2018-03-11)"
   sodipodi:docname="drawing.svg">
  <defs
     id="defs9578" />
  <sodipodi:namedview
     id="base"
     pagecolor="#ffffff"
     bordercolor="#666666"
     borderopacity="1.0"
     inkscape:pageopacity="0.0"
     inkscape:pageshadow="2"
     inkscape:zoom="0.35"
     inkscape:cx="1668.8451"
     inkscape:cy="120.3512"
     inkscape:document-units="mm"
     inkscape:current-layer="layer1"
     showgrid="false"
     fit-margin-top="0"
     fit-margin-left="0"
     fit-margin-right="0"
     fit-margin-bottom="0"
     units="mm"
     inkscape:window-width="1920"
     inkscape:window-height="1017"
     inkscape:window-x="-4"
     inkscape:window-y="-4"
     inkscape:window-maximized="1" />
  <metadata
     id="metadata9581">
    <rdf:RDF>
      <cc:Work
         rdf:about="">
        <dc:format>image/svg+xml</dc:format>
        <dc:type
           rdf:resource="http://purl.org/dc/dcmitype/StillImage" />
        <dc:title></dc:title>
      </cc:Work>
    </rdf:RDF>
  </metadata>
  <g
     inkscape:label="Layer 1"
     inkscape:groupmode="layer"
     id="layer1"
     transform="translate(443.43848,81.069099)">
    <path
       d="m -42.045057,180.67624 -370.416653,-2.45367 1.71756,-259.291669 370.416663,2.453672 z"
       id="path1790"
       inkscape:connector-curvature="0"
       style="fill:#d2d4b7;stroke-width:0.26458913" />
    <g
       transform="matrix(0.26458333,0,0,0.26458333,-416.63565,-79.863247)"
       id="g1878">
      <g
         id="g1804">
        <g
           id="g1802">
          <g
             id="g1798">
            <g
               id="g1796">
              <path
                 d="m 964.6,892.7 h -0.3 c 0,0 0.1,0 0.3,0 z"
                 id="path1792"
                 inkscape:connector-curvature="0"
                 style="fill:#ffedb1" />
              <path
                 d="M 292.9,680.2 180.8,679.5 167.4,679.4 49,678.6 c -37.1,-0.2 -66.9,-32.2 -66.6,-71.3 0.2,-33.5 22.3,-61.3 51.9,-68.6 4.4,-1.2 9,-1.9 13.8,-1.9 l 73.1,0.5 c 16.3,0.1 29.6,-13.8 29.7,-31 0.1,-17.2 -13,-31.3 -29.3,-31.4 v -0.3 l -149.2,-1 c -41,-0.3 -74,-35.6 -73.7,-78.9 0.3,-43.3 33.8,-78.2 74.8,-78 l 224.9,1.5 c 13.3,0.1 24.8,-12.8 25.5,-29.6 0.8,-18 -10.4,-32.9 -24.4,-33 l -11.6,-0.1 c 0.4,0 0.9,0 1.3,0 l -51.4,-0.3 C 109,255 86,230.3 86.2,200.1 v 0 c 0.2,-30.2 23.6,-54.6 52.2,-54.4 l 164.6,1.1 c 5.9,-2.4 10.2,-8.4 10.2,-15.5 0.1,-9.2 -7,-16.7 -15.7,-16.8 h 3.8 C 273.9,114.3 251.9,90.7 252,61.8 v 0 C 252.2,32.9 274.6,9.5 301.9,9.7 l 802.3,5.3 c 27.4,0.2 49.4,23.8 49.3,52.7 v 0 c -0.2,28.9 -22.6,52.3 -49.9,52.1 l 172.3,1.1 30.7,0.2 c 37.1,0.2 66.9,32.2 66.6,71.3 -0.2,33.5 -22.3,61.3 -51.9,68.6 -4.4,1.2 -9,1.9 -13.8,1.9 l -83.6,-0.6 c -13.6,-0.1 -24.7,13.9 -24.9,31.1 v 0 c -0.1,17.3 10.8,31.4 24.4,31.5 l 217.6,1.4 c 33.9,0.2 61.2,29.4 60.9,65.3 -0.2,35.8 -27.9,64.7 -61.8,64.4 L 1268,454.9 c 0.4,0 0.9,0 1.3,0 -22.9,0.6 -41.3,20.3 -41.5,44.6 v 0 c -0.2,24.3 18,44.3 40.9,45.2 -0.4,0 -0.9,0 -1.3,0 l 51.4,0.3 c 28.6,0.2 51.7,24.9 51.5,55.1 v 0 c -0.2,30.2 -23.6,54.6 -52.2,54.4 l -164.6,-1.1 c -5.9,2.4 -10.2,8.4 -10.2,15.5 -0.1,9.2 7,16.7 15.7,16.8 h -3.8 c 27.4,0.2 49.4,23.8 49.3,52.7 v 0 c -0.2,25.9 -18.1,47.3 -41.5,51.4 l -205.3,-1.1 c -30.7,-0.2 -55.8,22.9 -56,51.5 v 0 c -0.2,28.7 24.6,52.1 55.3,52.3 h 3.3 c 27.4,0.2 49.4,17.5 49.3,38.8 v 0 c -0.1,21.2 -22.4,38.3 -49.8,38.1 l -617.2,-4.1 c -27.4,-0.2 -49.4,-17.5 -49.3,-38.8 v 0 c 0.1,-21.2 22.4,-38.3 49.8,-38.1 l -40.5,-0.3 -115.5,-0.8 c -37,-0.2 -66.9,-23.7 -66.7,-52.4 0.2,-24.5 22.2,-44.9 51.7,-50.2 4.1,-0.9 8.5,-1.3 13,-1.3 l 109.1,0.7 z"
                 id="path1794"
                 inkscape:connector-curvature="0"
                 style="fill:#fbd08a" />
            </g>
          </g>
          <path
             d="m 1425.8,801.4 -113.3,-0.8 c -23.7,-0.2 -42.8,-19.5 -42.7,-43.3 v 0 c 0.2,-23.7 19.5,-42.8 43.3,-42.7 l 113.3,0.8 c 23.7,0.2 42.8,19.5 42.7,43.3 v 0 c -0.2,23.7 -19.5,42.8 -43.3,42.7 z"
             id="path1800"
             inkscape:connector-curvature="0"
             style="fill:#fbd08a" />
        </g>
      </g>
      <g
         id="g1868">
        <g
           id="g1866">
          <path
             d="m 1441.2,326.4 c 33.9,0.2 61.2,29.4 60.9,65.3 -0.2,35.8 -27.9,64.7 -61.8,64.4 l -32.4,-0.2 0.9,-129.7 z"
             id="path1806"
             inkscape:connector-curvature="0"
             style="fill:#fde090" />
          <path
             d="m 1319,545.2 c 28.6,0.2 51.7,24.9 51.5,55.1 v 0 c -0.2,30.2 -23.6,54.6 -52.2,54.4 l -12.2,-0.1 0.7,-109.5 z"
             id="path1808"
             inkscape:connector-curvature="0"
             style="fill:#fde090" />
          <path
             d="m 1373.2,192.4 c -0.2,33.5 -22.3,61.3 -51.9,68.6 -4,1.1 -8.2,1.8 -12.6,1.8 l 0.9,-141.7 c 35.7,2 63.9,33.3 63.6,71.3 z"
             id="path1810"
             inkscape:connector-curvature="0"
             style="fill:#fde090" />
          <path
             d="m 1290,343.79999 h 129.7 v 93.8 H 1290 Z"
             transform="matrix(0.00662401,-1,1,0.00662401,955.1434,1742.8887)"
             id="path1812"
             inkscape:connector-curvature="0"
             style="fill:#fde090" />
          <path
             d="m 1275.9,120.9 27.3,0.2 -0.9,141.8 -78.2,-0.5 c -5.9,0 -11.4,2.6 -15.6,7 l 1,-148.9 z"
             id="path1814"
             inkscape:connector-curvature="0"
             style="fill:#fde090" />
          <path
             d="m 1223.5,325 78.2,0.5 -0.9,129.7 -32.7,-0.2 c 0.4,0 0.9,0 1.3,0 -22.9,0.6 -41.3,20.3 -41.5,44.6 v 0 c -0.2,24.3 18,44.3 40.9,45.2 -0.4,0 -0.9,0 -1.3,0 l 32.7,0.2 -0.7,109.5 -93.8,-0.6 2.2,-336.1 c 4.3,4.4 9.7,7.1 15.6,7.2 z"
             id="path1816"
             inkscape:connector-curvature="0"
             style="fill:#fde090" />
          <path
             d="m 1202.7,120.4 -1.1,159.4 c -1.6,4.1 -2.6,8.8 -2.6,13.7 v 0 c 0,4.9 0.8,9.6 2.4,13.7 l -2.3,346.7 -45.4,-0.3 c -5.9,2.4 -10.2,8.4 -10.2,15.5 -0.1,9.2 7,16.7 15.7,16.8 h -3.8 c 18.8,0.1 35,11.3 43.4,27.6 l -0.3,50.2 c -7.2,13.7 -20.1,23.7 -35.3,26.3 l -58.7,-0.3 4.4,-669.9 z"
             id="path1818"
             inkscape:connector-curvature="0"
             style="fill:#fde090" />
          <path
             d="m 1153.5,67.7 v 0 c -0.2,27 -19.7,49.2 -44.6,51.8 l 0.7,-104.2 c 24.9,2.9 44.1,25.3 43.9,52.4 z"
             id="path1820"
             inkscape:connector-curvature="0"
             style="fill:#fde090" />
          <path
             d="m 1103,14.9 -5.1,774.80001 -93.8,-0.60003 L 1009.2,14.3 Z"
             id="path1822"
             inkscape:connector-curvature="0"
             style="fill:#fde090" />
          <path
             d="m 1009.7,931.5 v 0 c 0,7 -2.5,13.5 -6.7,19.1 l 0.3,-38.2 c 4.1,5.6 6.5,12.1 6.4,19.1 z"
             id="path1824"
             inkscape:connector-curvature="0"
             style="fill:#fde090" />
          <path
             d="m 959.9,969.6 -57.4,-0.4 0.8,-116.8 c 5.7,22.9 27.6,40.1 53.9,40.2 h 3.3 c 14.4,0.1 27.3,5 36.3,12.6 l -0.3,52.1 c -9.2,7.7 -22.2,12.4 -36.6,12.3 z"
             id="path1826"
             inkscape:connector-curvature="0"
             style="fill:#fde090" />
          <path
             d="m 1002.7,14.3 -5.1,774.9 -39.7,-0.2 c -26.3,-0.2 -48.4,16.7 -54.4,39.5 l 5.4,-814.8 z"
             id="path1828"
             inkscape:connector-curvature="0"
             style="fill:#fde090" />
          <path
             d="M 374.39999,444.10001 H 1330 v 93.8 H 374.39999 Z"
             transform="matrix(-0.00662398,1,-1,-0.00662398,1348.8871,-357.8714)"
             id="path1830"
             inkscape:connector-curvature="0"
             style="fill:#fde090" />
          <path
             d="m 274,443.5 h 955.6 v 93.8 H 274 Z"
             transform="matrix(-0.00662398,1,-1,-0.00662398,1247.1726,-258.1583)"
             id="path1832"
             inkscape:connector-curvature="0"
             style="fill:#fde090" />
          <path
             d="M 173.60001,442.79999 H 1129.2 v 93.8 H 173.60001 Z"
             transform="matrix(-0.00662398,1,-1,-0.00662398,1145.4581,-158.4453)"
             id="path1834"
             inkscape:connector-curvature="0"
             style="fill:#fde090" />
          <path
             d="M 73.300003,442.20001 H 1028.9 v 93.8 H 73.300003 Z"
             transform="matrix(-0.00662398,1,-1,-0.00662398,1043.7437,-58.7322)"
             id="path1836"
             inkscape:connector-curvature="0"
             style="fill:#fde090" />
          <path
             d="m -27.1,441.5 h 955.59997 v 93.8 H -27.1 Z"
             transform="matrix(-0.00662398,1,-1,-0.00662398,942.0292,40.9807)"
             id="path1838"
             inkscape:connector-curvature="0"
             style="fill:#fde090" />
          <path
             d="m 297.5,114.4 h 1.8 v 0.1 c -0.6,0 -1.2,-0.1 -1.8,-0.1 z"
             id="path1840"
             inkscape:connector-curvature="0"
             style="fill:#fde090" />
          <path
             d="m 252,61.7 v 0 c 0.2,-28.2 21.5,-51.1 48,-52 l -0.7,104.7 C 272.8,113.1 251.8,89.9 252,61.7 Z"
             id="path1842"
             inkscape:connector-curvature="0"
             style="fill:#fde090" />
          <path
             d="m 293.4,926.7 v 0 c 0,-1.8 0.2,-3.6 0.5,-5.3 l -0.1,10.7 c -0.2,-1.8 -0.4,-3.6 -0.4,-5.4 z"
             id="path1844"
             inkscape:connector-curvature="0"
             style="fill:#fde090" />
          <path
             d="m 180.8,679.5 -13.4,-0.1 -66.1,-0.4 0.9,-141.8 18.8,0.1 c 16.3,0.1 29.6,-13.8 29.7,-31 0.1,-17.2 -13,-31.3 -29.3,-31.4 v -0.3 l -18.8,-0.1 1,-156.9 93.8,0.6 -2.4,361.4 z"
             id="path1846"
             inkscape:connector-curvature="0"
             style="fill:#fde090" />
          <path
             d="m 187.2,887.6 c -37,-0.2 -66.9,-23.7 -66.7,-52.4 0.2,-24.5 22.2,-44.9 51.7,-50.2 4.1,-0.9 8.5,-1.3 13,-1.3 l 9.2,0.1 -0.7,104 z"
             id="path1848"
             inkscape:connector-curvature="0"
             style="fill:#fde090" />
          <path
             d="m 187.7,255.5 c 0.4,0 0.9,0 1.3,0 l -51.4,-0.3 c -12.8,-0.1 -24.5,-5.1 -33.4,-13.2 l 0.6,-83.5 c 9.1,-8.1 20.8,-12.9 33.6,-12.8 l 60.3,0.4 -0.7,109.6 z"
             id="path1850"
             inkscape:connector-curvature="0"
             style="fill:#fde090" />
          <path
             d="M -28.700001,348.70001 H 128.19999 v 93.80001 H -28.700001 Z"
             transform="matrix(-0.00662398,1,-1,-0.00662398,445.688,348.5535)"
             id="path1852"
             inkscape:connector-curvature="0"
             style="fill:#fde090" />
          <path
             d="m 86.2,200.1 v 0 c 0.1,-13.2 4.6,-25.2 12,-34.6 l -0.5,69.4 C 90.4,225.3 86.1,213.2 86.2,200.1 Z"
             id="path1854"
             inkscape:connector-curvature="0"
             style="fill:#fde090" />
          <path
             d="M 49,678.6 C 30.2,678.5 13.2,670.2 1.1,656.9 l 0.7,-99 c 8.8,-9.4 19.9,-16.2 32.5,-19.3 4.4,-1.2 9,-1.9 13.8,-1.9 l 47.7,0.3 -0.9,141.8 z"
             id="path1856"
             inkscape:connector-curvature="0"
             style="fill:#fde090" />
          <path
             d="m -17.7,607.2 c 0.1,-15.4 4.8,-29.5 12.8,-41.1 l -0.5,82.4 c -7.8,-11.7 -12.4,-25.9 -12.3,-41.3 z"
             id="path1858"
             inkscape:connector-curvature="0"
             style="fill:#fde090" />
          <path
             d="m -27.7,473.6 c -32.8,-0.2 -60.4,-22.9 -70.1,-54.1 l 0.3,-49.6 c 10,-31.1 38,-53.4 70.8,-53.2 l 23.4,0.2 -1,156.9 z"
             id="path1860"
             inkscape:connector-curvature="0"
             style="fill:#fde090" />
          <path
             d="m 205.2,146.1 -0.7,110.2 c 11.5,3.2 19.9,16.6 19.2,32.2 -0.6,14.3 -9,25.7 -19.6,28.8 l -2.3,348.8 -0.1,13.4 h 5 c 30.8,0.2 55.6,23.7 55.4,52.4 v 0 c -0.2,28.7 -25.3,51.9 -56.1,51.7 h -5 l -0.3,39.1 -0.4,64.9 93.8,0.6 0.4,-64.9 0.3,-39.1 0.7,-104.1 0.1,-13.4 3.4,-520.1 z"
             id="path1862"
             inkscape:connector-curvature="0"
             style="fill:#fde090" />
          <path
             d="M 306.5,9.6 305.8,117 c 4.4,3 7.4,8.2 7.3,14.2 0,6 -3,11.2 -7.5,14.1 l -3.4,506 -0.2,29 -0.7,104.1 -0.3,39.1 -0.4,64.9 h 2 l 40.5,0.3 c -18,-0.1 -33.9,7.3 -42.6,18.4 l -0.3,39.5 c 8.6,11.2 24.3,18.8 42.4,18.9 l 51.3,0.3 6.3,-955.6 z"
             id="path1864"
             inkscape:connector-curvature="0"
             style="fill:#fde090" />
        </g>
      </g>
      <g
         id="g1876">
        <g
           id="g1874">
          <path
             d="m 1425.8,801.4 -57.4,-0.4 0.6,-86 57.4,0.4 c 15.3,0.1 28.8,8.2 36.3,20.4 l -0.3,45.7 c -7.7,12 -21.2,20 -36.6,19.9 z"
             id="path1870"
             inkscape:connector-curvature="0"
             style="fill:#fde090" />
          <path
             d="m 1312.5,800.6 c -23.7,-0.2 -42.8,-19.5 -42.7,-43.3 v 0 c 0.2,-23.7 19.5,-42.8 43.3,-42.7 l 49.4,0.3 -0.6,86 z"
             id="path1872"
             inkscape:connector-curvature="0"
             style="fill:#fde090" />
        </g>
      </g>
    </g>
  </g>
</svg>
