<svg xmlns="http://www.w3.org/2000/svg" width="764.798" height="272.624" viewBox="0 0 202.353 72.131">
  <defs>
    <clipPath id="k">
      <path d="M8657.89 6664.16h-50.07l-9.06 182.98h68.17z"/>
    </clipPath>
    <linearGradient id="l" gradientTransform="matrix(68.1641 0 0 -68.1641 8598.76 6755.65)" gradientUnits="userSpaceOnUse" x2="1">
      <stop offset="0" stop-color="#fff"/>
      <stop offset="1" stop-color="#231f20"/>
    </linearGradient>
    <clipPath id="i">
      <path d="M8560.21 6807.67c0-20.81-16.87-37.66-37.68-37.66-20.82 0-37.67 16.85-37.67 37.66 0 20.81 16.85 37.68 37.67 37.68 20.81 0 37.68-16.87 37.68-37.68z"/>
    </clipPath>
    <linearGradient id="j" gradientTransform="matrix(75.3516 0 0 -75.3516 8484.86 6807.68)" gradientUnits="userSpaceOnUse" x2="1">
      <stop offset="0" stop-color="#fff"/>
      <stop offset="1" stop-color="#231f20"/>
    </linearGradient>
    <clipPath id="g">
      <path d="M8780.85 6807.67c0-20.81-16.85-37.66-37.67-37.66-20.81 0-37.68 16.85-37.68 37.66 0 20.81 16.87 37.68 37.68 37.68 20.82 0 37.67-16.87 37.67-37.68z"/>
    </clipPath>
    <linearGradient id="h" gradientTransform="matrix(75.3516 0 0 -75.3516 8705.5 6807.68)" gradientUnits="userSpaceOnUse" x2="1">
      <stop offset="0" stop-color="#fff"/>
      <stop offset="1" stop-color="#231f20"/>
    </linearGradient>
    <clipPath id="f">
      <path d="M9012.86 6300.69c0-46.97-38.08-85.04-85.04-85.04H8337.9c-46.97 0-85.04 38.07-85.04 85.04v369.92c0 46.97 38.07 85.04 85.04 85.04h589.92c46.96 0 85.04-38.07 85.04-85.04z"/>
    </clipPath>
    <clipPath id="e">
      <path d="M9722.86 6165.65h-2180v700h2180z"/>
    </clipPath>
    <clipPath id="c">
      <path d="M8740.36 6155.65c0-22.09-17.91-40-40-40s-40 17.91-40 40 17.91 40 40 40 40-17.91 40-40z"/>
    </clipPath>
    <linearGradient id="d" gradientTransform="matrix(80 0 0 -80 8660.36 6155.65)" gradientUnits="userSpaceOnUse" x2="1">
      <stop offset="0" stop-color="#fff"/>
      <stop offset="1" stop-color="#231f20"/>
    </linearGradient>
    <clipPath id="a">
      <path d="M8600.36 6155.65c0-22.09-17.91-40-40-40s-40 17.91-40 40 17.91 40 40 40 40-17.91 40-40z"/>
    </clipPath>
    <linearGradient id="b" gradientTransform="matrix(80 0 0 -80 8520.36 6155.65)" gradientUnits="userSpaceOnUse" x2="1">
      <stop offset="0" stop-color="#fff"/>
      <stop offset="1" stop-color="#231f20"/>
    </linearGradient>
  </defs>
  <g transform="matrix(.0924 0 0 -.0949 -696.486 652.096)" clip-path="url(#a)">
    <path d="M8600.36 6155.65c0-22.09-17.91-40-40-40s-40 17.91-40 40 17.91 40 40 40 40-17.91 40-40" fill="url(#b)"/>
  </g>
  <path d="M98.173 67.86h-.462a3.23 3.341 0 0 1-3.234 3.323 3.227 3.338 0 0 1-3.234-3.322 3.226 3.337 0 0 1 3.234-3.322 3.228 3.34 0 0 1 3.234 3.322h.924c0-2.358-1.861-4.27-4.158-4.27a4.144 4.287 0 0 0-4.157 4.27c0 2.36 1.86 4.27 4.157 4.27a4.144 4.287 0 0 0 4.158-4.27h-.462" fill="#231f20"/>
  <g transform="matrix(.0924 0 0 -.0949 -696.486 652.096)" clip-path="url(#c)">
    <path d="M8740.36 6155.65c0-22.09-17.91-40-40-40s-40 17.91-40 40 17.91 40 40 40 40-17.91 40-40" fill="url(#d)"/>
  </g>
  <path d="M111.11 67.86h-.462a3.23 3.341 0 0 1-3.235 3.323 3.226 3.337 0 0 1-3.234-3.322 3.226 3.337 0 0 1 3.234-3.322 3.228 3.34 0 0 1 3.235 3.322h.923c0-2.358-1.86-4.27-4.158-4.27a4.144 4.287 0 0 0-4.158 4.27c0 2.36 1.86 4.27 4.158 4.27a4.144 4.287 0 0 0 4.158-4.27h-.461" fill="#231f20"/>
  <g transform="matrix(.0924 0 0 -.0949 -696.486 652.096)" clip-path="url(#e)" fill="#454837">
    <path d="M9722.86 6165.65h-2180v700h2180l5-705"/>
  </g>
  <path d="M201.89 66.91v-.473H.924V.949h200.504v65.963h.462v-.474.474h.463V0H0v67.386h202.353v-.474h-.463" fill="#231f20"/>
  <g transform="matrix(.0924 0 0 -.0949 -696.486 652.096)" clip-path="url(#f)" fill="#c4c8b7">
    <path d="M9012.86 6300.69c0-46.97-38.08-85.04-85.04-85.04H8337.9c-46.97 0-85.04 38.07-85.04 85.04v369.92c0 46.97 38.07 85.04 85.04 85.04h589.92c46.96 0 85.04-38.07 85.04-85.04v-369.92"/>
  </g>
  <path d="M136.287 54.095h-.462c0 2.1-.827 3.997-2.166 5.372a7.396 7.65 0 0 1-5.23 2.225H73.923a7.397 7.652 0 0 1-5.23-2.225 7.293 7.544 0 0 1-2.165-5.373V18.988c0-2.1.828-3.997 2.166-5.372a7.398 7.653 0 0 1 5.23-2.225h54.508c2.042 0 3.888.85 5.228 2.225a7.294 7.545 0 0 1 2.166 5.372v35.109h.925v-35.11c0-4.721-3.725-8.546-8.32-8.546H73.922c-4.594 0-8.32 3.825-8.32 8.545v35.11c0 4.719 3.726 8.545 8.32 8.545h54.51c4.593 0 8.316-3.826 8.318-8.546h-.463" fill="#22241c"/>
  <g transform="matrix(.0924 0 0 -.0949 -696.486 652.096)" clip-path="url(#g)">
    <path d="M8780.85 6807.67c0-20.81-16.85-37.66-37.67-37.66-20.81 0-37.68 16.85-37.68 37.66 0 20.81 16.87 37.68 37.68 37.68 20.82 0 37.67-16.87 37.67-37.68" fill="url(#h)"/>
  </g>
  <path d="M114.85 5.977h-.462a3.008 3.112 0 0 1-3.02 3.1 3.012 3.116 0 0 1-3.019-3.1 3.015 3.119 0 0 1 3.02-3.1 3.01 3.115 0 0 1 3.02 3.1h.924a3.928 4.063 0 0 0-3.943-4.05 3.93 4.065 0 0 0-3.944 4.05 3.928 4.063 0 0 0 3.944 4.05 3.927 4.062 0 0 0 3.943-4.05h-.462" fill="#231f20"/>
  <g transform="matrix(.0924 0 0 -.0949 -696.486 652.096)" clip-path="url(#i)">
    <path d="M8560.21 6807.67c0-20.81-16.87-37.66-37.68-37.66-20.82 0-37.67 16.85-37.67 37.66 0 20.81 16.85 37.68 37.67 37.68 20.81 0 37.68-16.87 37.68-37.68" fill="url(#j)"/>
  </g>
  <path d="M94.463 5.977h-.461a3.01 3.113 0 0 1-3.02 3.1 3.01 3.113 0 0 1-3.02-3.1c0-1.712 1.352-3.098 3.02-3.1a3.012 3.116 0 0 1 3.02 3.1h.924a3.928 4.063 0 0 0-3.944-4.05 3.928 4.063 0 0 0-3.942 4.05 3.927 4.062 0 0 0 3.942 4.05 3.928 4.063 0 0 0 3.944-4.05h-.462" fill="#231f20"/>
  <g transform="matrix(.0924 0 0 -.0949 -696.486 652.096)" clip-path="url(#k)">
    <path d="M8657.89 6664.16h-50.07l-9.06 182.98h68.17l-9.04-182.98" fill="url(#l)"/>
  </g>
  <path d="M103.49 19.6v-.477h-4.188l-.791-16.417h5.328l-.812 16.87.463.022v-.474.474l.46.024.859-17.865h-7.27l.883 18.316h5.505l.022-.451-.46-.024m1.167 9.35h-.462a3.01 3.113 0 0 1-3.017 3.1 3.01 3.115 0 0 1-3.02-3.1c0-1.713 1.351-3.099 3.02-3.102a3.01 3.113 0 0 1 3.017 3.102h.924a3.928 4.063 0 0 0-3.941-4.05 3.928 4.063 0 0 0-3.944 4.05 3.928 4.063 0 0 0 3.944 4.05 3.928 4.063 0 0 0 3.941-4.05h-.462" fill="#231f20"/>
</svg>
