<?xml version="1.0" encoding="UTF-8" standalone="no"?>
<!-- Created with Inkscape (http://www.inkscape.org/) -->

<svg
   xmlns:dc="http://purl.org/dc/elements/1.1/"
   xmlns:cc="http://creativecommons.org/ns#"
   xmlns:rdf="http://www.w3.org/1999/02/22-rdf-syntax-ns#"
   xmlns:svg="http://www.w3.org/2000/svg"
   xmlns="http://www.w3.org/2000/svg"
   xmlns:sodipodi="http://sodipodi.sourceforge.net/DTD/sodipodi-0.dtd"
   xmlns:inkscape="http://www.inkscape.org/namespaces/inkscape"
   width="200.8614"
   height="246.30457"
   viewBox="0 0 56.687555 69.512615"
   version="1.1"
   id="svg7742"
   inkscape:version="0.91 r13725"
   sodipodi:docname="litj.svg">
  <defs
     id="defs7736" />
  <sodipodi:namedview
     id="base"
     pagecolor="#ffffff"
     bordercolor="#666666"
     borderopacity="1.0"
     inkscape:pageopacity="0.0"
     inkscape:pageshadow="2"
     inkscape:zoom="0.60375"
     inkscape:cx="40.072447"
     inkscape:cy="-175.38908"
     inkscape:document-units="mm"
     inkscape:current-layer="litJaune"
     showgrid="false"
     fit-margin-top="0"
     fit-margin-left="0"
     fit-margin-right="0"
     fit-margin-bottom="0"
     inkscape:window-width="1920"
     inkscape:window-height="1054"
     inkscape:window-x="1920"
     inkscape:window-y="0"
     inkscape:window-maximized="1"
     units="px" />
  <metadata
     id="metadata7739">
    <rdf:RDF>
      <cc:Work
         rdf:about="">
        <dc:format>image/svg+xml</dc:format>
        <dc:type
           rdf:resource="http://purl.org/dc/dcmitype/StillImage" />
        <dc:title></dc:title>
      </cc:Work>
    </rdf:RDF>
  </metadata>
  <g
     inkscape:label="Layer 1"
     inkscape:groupmode="layer"
     id="layer1"
     transform="translate(261.25142,50.730533)">
    <g
       id="litJaune"
       transform="matrix(0.19608285,0,0,0.16441018,-452.17729,-61.581609)"
       inkscape:label="#g4701">
      <g
         id="g4155">
        <path
           style="fill:#ffe9c7"
           inkscape:connector-curvature="0"
           id="path4659"
           d="m 994.9,103.4 246.7,0 0,377.6 -246.7,0 z" />
        <path
           style="fill:#ffffff"
           inkscape:connector-curvature="0"
           id="path4661"
           d="m 1104.9,158.2 c 0,-8 3.1,-22.3 4.4,-25.9 1.2,-3.7 -1.1,-4 -6,-1.6 -4.9,2.3 -40.9,3.5 -40.9,3.5 0,0 -36,-1.2 -40.9,-3.5 -4.9,-2.3 -7.2,-2 -6,1.6 1.2,3.7 4.4,18 4.4,25.9 0,8 -3.1,22.3 -4.4,25.9 -1.2,3.7 1.1,4 6,1.6 4.9,-2.3 40.9,-3.5 40.9,-3.5 0,0 36,1.2 40.9,3.5 4.9,2.3 7.2,2 6,-1.6 -1.3,-3.6 -4.4,-17.9 -4.4,-25.9 z" />
        <g
           style="fill:#d1d3d4"
           id="g4665">
          <path
             inkscape:connector-curvature="0"
             id="path4663"
             d="m 1019.8,156.3 c 0,-0.7 0.1,-1.3 0.1,-1.9 0,-7.4 -2.7,-20.2 -4.1,-25 -0.7,0.4 -0.8,1.3 -0.3,2.9 1.2,3.4 3.9,15.8 4.3,24 z m 89.2,-26.9 c -1.4,4.7 -4.1,17.6 -4.1,25 0,0.6 0,1.3 0.1,1.9 0.4,-8.2 3.2,-20.6 4.3,-24 0.5,-1.6 0.3,-2.6 -0.3,-2.9 z m 0,53.8 c -0.9,0.5 -2.9,0.1 -5.7,-1.3 -4.9,-2.3 -40.9,-3.5 -40.9,-3.5 0,0 -36,1.2 -40.9,3.5 -2.8,1.3 -4.8,1.8 -5.7,1.3 -0.1,0.4 -0.2,0.7 -0.3,1 -1.2,3.7 1.1,4 6,1.6 4.9,-2.3 40.9,-3.5 40.9,-3.5 0,0 36,1.2 40.9,3.5 4.9,2.3 7.2,2 6,-1.6 -0.1,-0.3 -0.2,-0.6 -0.3,-1 z" />
        </g>
        <path
           style="fill:#ffffff"
           inkscape:connector-curvature="0"
           id="path4667"
           d="m 1226.7,158.2 c 0,-8 3.1,-22.3 4.4,-25.9 1.2,-3.7 -1.1,-4 -6,-1.6 -4.9,2.3 -40.9,3.5 -40.9,3.5 0,0 -36,-1.2 -40.9,-3.5 -4.9,-2.3 -7.2,-2 -6,1.6 1.2,3.7 4.4,18 4.4,25.9 0,8 -3.1,22.3 -4.4,25.9 -1.2,3.7 1.1,4 6,1.6 4.9,-2.3 40.9,-3.5 40.9,-3.5 0,0 36,1.2 40.9,3.5 4.9,2.3 7.2,2 6,-1.6 -1.3,-3.6 -4.4,-17.9 -4.4,-25.9 z" />
        <g
           style="fill:#ffd6a0"
           id="g4671">
          <path
             inkscape:connector-curvature="0"
             id="path4669"
             d="m 1229.5,129.1 0,9.1 c 0.1,-0.5 0.2,-1.1 0.4,-1.6 l 0,-7.6 c -0.2,0.1 -0.3,0.1 -0.4,0.1 z m -3,57.3 0,-56.4 c -0.4,0.2 -0.9,0.4 -1.4,0.6 -1.1,0.5 -3.7,1 -7.1,1.4 l 0,52.4 c 3.4,0.4 6,0.9 7.1,1.4 0.5,0.2 0.9,0.4 1.4,0.6 z m 3.4,-6.7 c -0.1,-0.5 -0.2,-1 -0.4,-1.6 l 0,9.1 0.4,0 z m -15,-26.4 0,-21 -0.4,0 0,51.7 0.4,0 z m -34.6,-19.3 0,48.4 0.4,0 0,-48.4 z m -39.5,14.6 c 0.1,0.9 0.2,1.7 0.4,2.6 l 0,-21.5 c -0.1,0 -0.2,-0.1 -0.4,-0.1 z m 36.5,4.7 0,-19.4 c -2.5,-0.1 -5.4,-0.3 -8.5,-0.4 l 0,49.5 c 3.1,-0.2 6.1,-0.3 8.5,-0.4 z m -24.6,30.8 0,-51.9 c -3.7,-0.4 -6.8,-0.8 -8.5,-1.3 l 0,54.5 c 1.7,-0.4 4.8,-0.9 8.5,-1.3 z m 49.2,-30.8 0,-20 c -3,0.2 -6,0.3 -8.5,0.5 l 0,48.8 c 2.6,0.1 5.5,0.3 8.5,0.5 z m -45.8,0 0,-20.7 -0.4,0 0,51.3 0.4,0 z m 49.2,0 0,-20.2 -0.4,0 0,50.2 0.4,0 z m -64.1,33.4 0,-21.5 c -0.1,0.9 -0.2,1.7 -0.4,2.6 l 0,19 c 0.1,0 0.2,-0.1 0.4,-0.1 z m 24.5,-33.4 0,-20 -0.4,0 0,49.9 0.4,0 z m 24.6,29.2 0,-48.6 -0.4,0 0,48.5 c 0.2,0.1 0.3,0.1 0.4,0.1 z" />
        </g>
        <g
           style="fill:#ffd6a0"
           id="g4675">
          <path
             inkscape:connector-curvature="0"
             id="path4673"
             d="m 1108.6,129.1 0,9.1 c 0.1,-0.5 0.2,-1.1 0.4,-1.6 l 0,-7.6 c -0.2,0.1 -0.3,0.1 -0.4,0.1 z m -3.1,57.3 0,-56.4 c -0.4,0.2 -0.9,0.4 -1.4,0.6 -1.1,0.5 -3.7,1 -7.1,1.4 l 0,52.4 c 3.4,0.4 6,0.9 7.1,1.4 0.5,0.2 1,0.4 1.4,0.6 z m 3.4,-6.7 c -0.1,-0.5 -0.2,-1 -0.4,-1.6 l 0,9.1 0.4,0 z m -14.9,-26.4 0,-21 -0.4,0 0,51.7 0.4,0 z m -34.6,-19.3 0,48.4 0.4,0 0,-48.4 z m -39.5,14.6 c 0.1,0.9 0.2,1.7 0.4,2.6 l 0,-21.5 c -0.1,0 -0.2,-0.1 -0.4,-0.1 z m 36.5,4.7 0,-19.4 c -2.5,-0.1 -5.4,-0.3 -8.5,-0.4 l 0,49.5 c 3.1,-0.2 6.1,-0.3 8.5,-0.4 z m -24.6,30.8 0,-51.9 c -3.7,-0.4 -6.8,-0.8 -8.5,-1.3 l 0,54.5 c 1.7,-0.4 4.8,-0.9 8.5,-1.3 z m 49.2,-30.8 0,-20 c -3,0.2 -6,0.3 -8.5,0.5 l 0,48.8 c 2.6,0.1 5.5,0.3 8.5,0.5 z m -45.8,0 0,-20.7 -0.4,0 0,51.3 0.4,0 z m 49.2,0 0,-20.2 -0.4,0 0,50.2 0.4,0 z m -64.2,33.4 0,-21.5 c -0.1,0.9 -0.2,1.7 -0.4,2.6 l 0,19 c 0.2,0 0.3,-0.1 0.4,-0.1 z m 24.6,-33.4 0,-20 -0.4,0 0,49.9 0.4,0 z m 24.6,29.2 0,-48.6 -0.4,0 0,48.5 c 0.2,0.1 0.3,0.1 0.4,0.1 z" />
        </g>
        <g
           style="fill:#d1d3d4"
           id="g4679">
          <path
             inkscape:connector-curvature="0"
             id="path4677"
             d="m 1141.6,156.3 c 0,-0.7 0.1,-1.3 0.1,-1.9 0,-7.4 -2.7,-20.2 -4.1,-25 -0.7,0.4 -0.8,1.3 -0.3,2.9 1.2,3.4 3.9,15.8 4.3,24 z m 89.2,-26.9 c -1.4,4.7 -4.1,17.6 -4.1,25 0,0.6 0,1.3 0.1,1.9 0.4,-8.2 3.2,-20.6 4.3,-24 0.5,-1.6 0.3,-2.6 -0.3,-2.9 z m 0,53.8 c -0.9,0.5 -2.9,0.1 -5.7,-1.3 -4.9,-2.3 -40.9,-3.5 -40.9,-3.5 0,0 -36,1.2 -40.9,3.5 -2.8,1.3 -4.8,1.8 -5.7,1.3 -0.1,0.4 -0.2,0.7 -0.3,1 -1.2,3.7 1.1,4 6,1.6 4.9,-2.3 40.9,-3.5 40.9,-3.5 0,0 36,1.2 40.9,3.5 4.9,2.3 7.2,2 6,-1.6 -0.1,-0.3 -0.2,-0.6 -0.3,-1 z" />
        </g>
        <path
           style="fill:#f8bbd6"
           inkscape:connector-curvature="0"
           id="path4681"
           d="m 988.1,237.5 0,239.5 c 0,6.5 5.2,11.8 11.5,11.8 l 237.3,0 c 6.4,0 11.5,-5.3 11.5,-11.8 l 0,-239.5 z" />
        <path
           style="fill:#ffce4b"
           inkscape:connector-curvature="0"
           id="path4683"
           d="m 988.1,237.5 0,239.5 c 0,6.5 5.2,11.8 11.5,11.8 l 237.3,0 c 6.4,0 11.5,-5.3 11.5,-11.8 l 0,-239.5 z" />
        <g
           style="fill:#f6ab35"
           id="g4687">
          <path
             inkscape:connector-curvature="0"
             id="path4685"
             d="m 1242.5,281.5 0,205.8 c 3.6,-2 6,-5.9 6,-10.3 l 0,-239.5 -6,0 z m -13,-44 0,251.2 0.4,0 0,-251.2 z m -3,236.3 0,-236.3 -8.6,0 0,251.2 8.6,0 z m -11.6,0 0,-236.3 -0.4,0 0,251.2 0.4,0 z m 24.6,14.7 0,-250.9 -0.4,0 0,251 c 0.1,-0.1 0.2,-0.1 0.4,-0.1 z m -62.2,-14.7 0,-236.3 -8.5,0 0,251.2 8.5,0 z m -24.6,0 0,-236.3 -8.5,0 0,251.2 8.5,0 z m 49.2,0 0,-236.3 -8.6,0 0,251.2 8.6,0 z m -21.2,0 0,-236.3 -0.4,0 0,251.2 0.4,0 z m -24.6,0 0,-236.3 -0.3,0 0,251.2 0.3,0 z m 49.2,0 0,-236.3 -0.4,0 0,251.2 0.4,0 z m -64.1,0 0,-236.3 -0.4,0 0,251.2 0.4,0 z m 24.5,0 0,-236.3 -0.3,0 0,251.2 0.3,0 z m 24.6,0 0,-236.3 -0.3,0 0,251.2 0.3,0 z m -86.7,0 0,-236.3 -8.6,0 0,251.2 8.6,0 z m -24.6,0 0,-236.3 -8.5,0 0,251.2 8.5,0 z m 49.2,0 0,-236.3 -8.6,0 0,251.2 8.6,0 z m -21.2,0 0,-236.3 -0.4,0 0,251.2 0.4,0 z m -24.6,0 0,-236.3 -0.4,0 0,251.2 0.4,0 z m 49.2,0 0,-236.3 -0.4,0 0,251.2 0.4,0 z m -64.2,0 0,-236.3 -0.3,0 0,251.2 0.3,0 z m 24.6,0 0,-236.3 -0.3,0 0,251.2 0.3,0 z m 24.6,0 0,-236.3 -0.4,0 0,251.2 0.4,0 z m -86.7,0 0,-236.3 -8.6,0 0,251.2 8.6,0 z m -24.6,14.9 0,-251.2 -8.5,0 0,250.9 c 0.9,0.2 1.9,0.4 2.9,0.4 l 5.6,0 z m 49.1,-14.9 0,-236.3 -8.5,0 0,251.2 8.5,0 z m -21.1,0 0,-236.3 -0.4,0 0,251.2 0.4,0 z m -24.6,0 0,-236.3 -0.4,0 0,251.2 0.4,0 z m 49.1,0 0,-236.3 -0.3,0 0,251.2 0.3,0 z m -64.1,13.3 0,-249.6 -0.4,0 0,249.3 c 0.2,0.1 0.3,0.2 0.4,0.3 z m 24.6,-13.3 0,-236.3 -0.4,0 0,251.2 0.4,0 z m 24.6,0 0,-236.3 -0.4,0 0,251.2 0.4,0 z" />
        </g>
        <path
           style="fill:#f0c419"
           inkscape:connector-curvature="0"
           id="path4689"
           d="m 1244,191.2 -251.4,0 c -4.1,0 -7.4,2.8 -7.4,6.3 l 0,58.9 c 0,1.2 1.6,1.9 2.9,1.3 0.8,-0.4 1.7,-0.6 2.7,-0.6 l 255.1,0 c 1,0 1.9,0.2 2.7,0.6 1.3,0.6 2.9,-0.1 2.9,-1.3 l 0,-58.9 c -0.1,-3.5 -3.4,-6.3 -7.5,-6.3 z" />
        <path
           style="fill:#ffce4b"
           inkscape:connector-curvature="0"
           id="path4691"
           d="m 1104.1,191.2 c 0,0 75.6,24.4 87.8,41.4 l 45.8,-41.4 z" />
        <g
           style="fill:#f6ab35"
           id="g4695">
          <path
             inkscape:connector-curvature="0"
             id="path4693"
             d="m 1226.5,191.2 -8.6,0 0,17.8 8.6,-7.7 z m 3.4,0 -0.4,0 0,7.3 0.4,-0.3 z m -15,0 -0.4,0 0,20.9 0.4,-0.4 z m -62.2,0 -8.5,0 0,14.7 c 2.8,1.2 5.7,2.3 8.5,3.6 z m 27.6,0 0,32 c 0.1,0.1 0.2,0.1 0.4,0.2 l 0,-32.2 z m -24.2,0 -0.4,0 0,19.5 c 0.1,0.1 0.2,0.1 0.4,0.2 z m -14.9,0 -0.4,0 0,13.3 c 0.1,0 0.2,0.1 0.4,0.1 z m 24.5,0 -0.4,0 0,23.9 c 0.1,0.1 0.2,0.1 0.4,0.2 z m 24.3,0 0,39.3 0.4,0.4 0,-39.6 -0.4,0 z m -12.7,26.2 0,-26.2 -8.5,0 0,25.6 c 3,1.5 5.9,3 8.5,4.6 z m 24.6,6.1 0,-32.3 -8.6,0 0,40 z m 3.4,-6.1 0,-26.2 -0.4,0 0,29.6 0.4,-0.4 z m -77.1,-26.2 -8.5,0 0,5.3 c 2.6,0.9 5.5,2 8.5,3.1 z m -21.6,0.8 c 0.1,0 0.2,0.1 0.4,0.1 l 0,-1 -0.4,0 z m 25,-0.8 -0.4,0 0,9.6 c 0.1,0 0.2,0.1 0.4,0.1 z m -15,0 -0.4,0 0,4.1 c 0.1,0 0.2,0.1 0.4,0.1 z" />
        </g>
        <path
           style="fill:#8d5526"
           inkscape:connector-curvature="0"
           id="path4697"
           d="m 1255.2,103.4 -273.9,0 c -4.2,0 -7.6,-3.4 -7.6,-7.6 l 0,-22.2 c 0,-4.2 3.4,-7.6 7.6,-7.6 l 273.9,0 c 4.2,0 7.6,3.4 7.6,7.6 l 0,22.2 c 0,4.2 -3.4,7.6 -7.6,7.6 z" />
        <path
           style="fill:#a76531"
           inkscape:connector-curvature="0"
           id="path4699"
           d="m 1256.6,97.5 -276.6,0 c -3.5,0 -6.3,-2.8 -6.3,-6.3 l 0,-13 c 0,-3.5 2.8,-6.3 6.3,-6.3 l 276.5,0 c 3.5,0 6.3,2.8 6.3,6.3 l 0,13 c 0,3.5 -2.8,6.3 -6.2,6.3 z" />
      </g>
    </g>
  </g>
</svg>
