<svg xmlns="http://www.w3.org/2000/svg" width="323.7" height="293.5" viewBox="0 0 85.646 77.655">
  <path class="st8" d="M48.498 36.38a9.128 8.89 0 0 1-9.128 8.89 9.128 8.89 0 0 1-9.128-8.89 9.128 8.89 0 0 1 9.128-8.89 9.128 8.89 0 0 1 9.128 8.89z" fill="#f7941e"/>
  <path class="st9" d="M48.048 36.38a8.678 8.44 0 0 1-8.678 8.44 8.678 8.44 0 0 1-8.678-8.44 8.678 8.44 0 0 1 8.678-8.44 8.678 8.44 0 0 1 8.678 8.44z" fill="#6f3516"/>
  <path d="M25.744 53.393s6.112-12.144 14.314-16.457l.794.688s-7.065 5.53-13.626 16.8l-1.64-1.005M22.33 25.135l16.193 10.928-.185.767-16.166-8.784-.185-2.831" class="st10" fill="#fed092"/>
  <path class="st11" d="M47.016 34.846L42.52 71.41h.423l4.55-35.613.424 28.496.476-.133-.264-29.315z" fill="#58bca9"/>
  <path class="st11" d="M47.493 35.19l5.186 28.76h.37l-4.921-29.104z" fill="#58bca9"/>
  <path class="st11" d="M48.392 34.343L54.77 66.86h-.424l-6.852-31.67z" fill="#58bca9"/>
  <path class="st11" d="M48.26 34.978l12.726 31.459-.608.423-12.806-31.38z" fill="#58bca9"/>
  <path class="st11" d="M47.837 34.343L66.94 67.548 47.016 34.846z" fill="#58bca9"/>
  <path class="st11" d="M47.89 34.978l12.276 15.98-.132.08L47.36 35.401z" fill="#58bca9"/>
  <path class="st11" d="M47.81 35.401l20.214 21.59-.264.238-19.526-20.108z" fill="#58bca9"/>
  <path class="st11" d="M47.89 34.978l18.706 16.59v.132L47.89 36.248z" fill="#58bca9"/>
  <path class="st11" d="M47.89 34.766L68.024 48.42l-.211.29-19.818-13.202z" fill="#58bca9"/>
  <path class="st12" d="M48.392 34.343L71.041 48.26v.185L48.154 35.137z" fill="#369b88"/>
  <path d="M47.493 34.21c.026 0 34.925 17.595 34.925 17.595l-.212.212L47.731 35.11z" class="st11" fill="#58bca9"/>
  <path class="st11" d="M47.572 33.946l33.84 11.165v.239l-33.02-9.34z" fill="#58bca9"/>
  <path class="st11" d="M48.79 33.734l33.337 6.192v.211L47.89 35.401l-.53-1.878z" fill="#58bca9"/>
  <path class="st11" d="M48.154 33.285l36.09 5.053v.132l-36.09-3.333z" fill="#58bca9"/>
  <path class="st12" d="M47.016 33.417l26.988-.238v.238l-26.644 1.35z" fill="#369b88"/>
  <path class="st11" d="M47.016 33.946l38.63-7.594v.186L47.228 35.19z" fill="#58bca9"/>
  <path class="st11" d="M46.831 34.21l28.205-9.419.106.133-28.31 10.61z" fill="#58bca9"/>
  <path class="st12" d="M46.593 34.078l21.828-10 .185.158L47.016 35.4z" fill="#369b88"/>
  <path d="M46.593 33.39l27.914-14.42h.185s-26.908 15.743-27.12 15.77c-.212.026-.979-1.35-.979-1.35z" class="st11" fill="#58bca9"/>
  <path class="st11" d="M46.434 33.973l27.57-21.617.265.185-27.014 22.543z" fill="#58bca9"/>
  <path class="st12" d="M46.434 33.285l24.263-20.48h.238L47.678 34.212z" fill="#369b88"/>
  <path class="st11" d="M46.276 33.814l19.129-18.918.212.132L47.149 34.82z" fill="#58bca9"/>
  <path class="st12" d="M46.09 33.179l19.183-20.373.185.132-19.05 21.035z" fill="#369b88"/>
  <path d="M46.09 32.702L65.273 9.234v.212S46.884 33.602 46.884 33.68c.027.106-.794-.979-.794-.979z" class="st12" fill="#369b88"/>
  <path class="st11" d="M45.64 32.782L65.036 0l.423.265L46.83 34.343z" fill="#58bca9"/>
  <path class="st11" d="M45.455 33.708l13.23-26.776h.344L46.884 34.581z" fill="#58bca9"/>
  <path class="st12" d="M45.64 34.581l3.784-28.046h.344l-2.937 28.443z" fill="#369b88"/>
  <path class="st11" d="M46.09 35.19l5.9-32.597h.265l-4.577 32.385z" fill="#58bca9"/>
  <path class="st11" d="M45.455 33.973l.98-26.75h.396l.318 26.802z" fill="#58bca9"/>
  <path class="st11" d="M46.434 33.337L33.655.714l.238-.264L47.36 32.914z" fill="#58bca9"/>
  <path class="st11" d="M45.455 32.808L41.672 7.646h.37l4.974 25.427z" fill="#58bca9"/>
  <path class="st11" d="M45.217 33.337l-1.614-28.23v-.292l3.44 28.655z" fill="#58bca9"/>
  <path class="st11" d="M48.154 33.523L31.38 6.535h-.609l15.77 27.676z" fill="#58bca9"/>
  <path class="st11" d="M49.186 33.787L29.263 11.774l-.318.212 17.727 22.172z" fill="#58bca9"/>
  <path class="st11" d="M48.445 33.655l-23.23-21.299 22.04 21.987zM47.81 35.454l25.374 18.68-.238.238-24.818-18.045 17.462 16.96-.37.238-18.071-17.383z" fill="#58bca9"/>
  <path class="st11" d="M47.73 35.957l14.844 20.108-.212.212L47.15 36.142z" fill="#58bca9"/>
  <path class="st12" d="M46.699 36.036l16.457 23.019.265-.265-15.69-22.833z" fill="#369b88"/>
  <path class="st11" d="M47.149 36.3l12.118 26.38.608-.132-11.985-26.38z" fill="#58bca9"/>
  <path class="st11" d="M47.016 35.692l9.446 31.327-8.652-31.565z" fill="#58bca9"/>
  <path class="st11" d="M47.387 36.063l2.725 17.012.132-.026-2.302-17.04z" fill="#58bca9"/>
  <path class="st11" d="M47.678 36.274l1.561 25.242.317-.027-1.058-23.945z" fill="#58bca9"/>
  <path class="st12" d="M47.387 36.063l-.662 21.378.08.08 1.376-20.717z" fill="#369b88"/>
  <path class="st11" d="M47.255 35.93L43.92 56.49l.317.052 3.413-20.081z" fill="#58bca9"/>
  <path class="st11" d="M46.699 36.036l-4.657 22.225.133.106 5.159-22.013z" fill="#58bca9"/>
  <path d="M47.122 35.375l-9.525 32.04h.265l9.71-31.352z" class="st11" fill="#58bca9"/>
  <path class="st11" d="M46.937 35.269L34 62.865l.159.159L47.73 37.015z" fill="#58bca9"/>
  <path class="st11" d="M46.064 35.904L30.348 60.272l.158.132 17.145-24.077-.873-1.428z" fill="#58bca9"/>
  <path class="st11" d="M46.17 35.242L28.125 60.67l.106.08 19.103-24.395z" fill="#58bca9"/>
  <path class="st11" d="M46.91 34.634L30.93 51.25l.159.159 16.457-15.796z" fill="#58bca9"/>
  <path class="st11" d="M47.255 34.925L19.87 54.478l.106.132L47.89 35.798z" fill="#58bca9"/>
  <path class="st12" d="M47.52 34.951L25.108 46.99l.026.132L48.34 35.745z" fill="#369b88"/>
  <path class="st11" d="M47.572 34.766L28.55 42.44v.238l19.605-6.905z" fill="#58bca9"/>
  <path d="M47.149 34.343l-25.32 8.89-.107.132s25.585-7.488 25.718-7.62c.106-.132-.291-1.402-.291-1.402z" class="st11" fill="#58bca9"/>
  <path class="st11" d="M47.599 34.581l-29.607 4.471-.053.292 29.871-3.599z" fill="#58bca9"/>
  <path class="st12" d="M47.175 34.184l-26.96 3.07-.133.132 26.934-1.905z" fill="#369b88"/>
  <path class="st11" d="M47.599 34.396l-22.966.794-.08.211 23.151.133z" fill="#58bca9"/>
  <path class="st11" d="M47.307 33.92l-23.918-.027-.026.185 24.262.477z" fill="#58bca9"/>
  <path d="M47.016 33.629l-25.85-1.826.133.132s25.797 2.752 25.85 2.778c.053.053-.133-1.084-.133-1.084z" class="st11" fill="#58bca9"/>
  <path class="st11" d="M47.334 33.39l-31.777-7.17-.052.424 32.12 8.413z" fill="#58bca9"/>
  <path class="st11" d="M48.022 33.814L23.6 26.326l-.212.238 24.342 8.652z" fill="#58bca9"/>
  <path class="st11" d="M48.472 34.449L28.787 20.373l-.186.185 19.394 14.87z" fill="#58bca9"/>
  <path class="st11" d="M48.551 35.084L24.844 19.632l-.158.159 22.807 16.166z" fill="#58bca9"/>
  <path class="st12" d="M48.18 33.973L30.957 18.89l-.211.238 16.483 15.928z" fill="#369b88"/>
  <path class="st12" d="M47.202 34.21L34.422 7.145l-.317-.027 12.303 27.411z" fill="#369b88"/>
  <path class="st12" d="M47.466 33.311L34.052 16.192l-.238.239 12.885 17.991z" fill="#369b88"/>
  <path class="st11" d="M47.916 33.443l-16.59-17.542-.185-.185 15.796 18.97z" fill="#58bca9"/>
  <path class="st11" d="M46.329 35.401L39.37 9.128l.37-.37 7.938 26.035z" fill="#58bca9"/>
  <path class="st12" d="M45.879 36.195l-2.011-25.294.317-.08 3.387 24.025z" fill="#369b88"/>
  <path class="st11" d="M46.223 35.64l.37-26.935.767 26.617z" fill="#58bca9"/>
  <g>
    <path class="st11" d="M25.797 53.499l-2.963 24.156h.264l3.016-23.521.265 18.812.317-.08-.158-19.367z" fill="#58bca9"/>
    <path class="st11" d="M26.114 53.737l3.413 18.997h.239l-3.228-19.235z" fill="#58bca9"/>
    <path class="st11" d="M26.696 53.181l4.207 21.458h-.264l-4.525-20.902z" fill="#58bca9"/>
    <path class="st11" d="M26.617 53.605l8.387 20.77-.397.264-8.44-20.69z" fill="#58bca9"/>
    <path class="st11" d="M26.352 53.181L38.947 75.09l-13.15-21.59z" fill="#58bca9"/>
    <path class="st11" d="M26.352 53.605l8.123 10.53-.106.053-8.36-10.319z" fill="#58bca9"/>
    <path class="st11" d="M26.326 53.87l13.335 14.26-.185.159L26.59 55.007z" fill="#58bca9"/>
    <path class="st11" d="M26.352 53.605L38.71 64.558v.08L26.352 54.425z" fill="#58bca9"/>
    <path class="st11" d="M26.352 53.446l13.309 9.022-.132.212-13.097-8.731z" fill="#58bca9"/>
    <path class="st12" d="M26.696 53.181l14.95 9.181v.133L26.537 53.71z" fill="#369b88"/>
    <path d="M26.114 53.075L49.16 64.691l-.16.158-22.753-11.165z" class="st11" fill="#58bca9"/>
    <path class="st11" d="M26.167 52.917l22.331 7.382v.158l-21.802-6.165z" fill="#58bca9"/>
    <path class="st11" d="M26.961 52.784l22.013 4.075v.159l-22.622-3.149-.343-1.217z" fill="#58bca9"/>
    <path class="st11" d="M26.538 52.493l23.839 3.334v.08l-23.84-2.197z" fill="#58bca9"/>
    <path class="st12" d="M25.797 52.573l17.806-.159v.159l-17.594.873z" fill="#369b88"/>
    <path class="st11" d="M25.797 52.917l25.48-5.027v.132l-25.348 5.715z" fill="#58bca9"/>
    <path class="st11" d="M25.665 53.075l18.626-6.19.053.079-18.68 7.011z" fill="#58bca9"/>
    <path class="st12" d="M25.532 53.023l14.394-6.615.132.106-14.261 7.355z" fill="#369b88"/>
    <path d="M25.532 52.546l18.415-9.498h.133S26.3 53.446 26.167 53.446c-.158 0-.635-.9-.635-.9z" class="st11" fill="#58bca9"/>
    <path class="st11" d="M25.4 52.943l18.203-14.287.186.132-17.833 14.896z" fill="#58bca9"/>
    <path class="st12" d="M25.4 52.493l16.034-13.52h.132L26.22 53.075z" fill="#369b88"/>
    <path class="st11" d="M25.294 52.837l12.62-12.488.16.08-12.198 13.07z" fill="#58bca9"/>
    <path class="st12" d="M25.188 52.414l12.674-13.44.106.078L25.4 52.943z" fill="#369b88"/>
    <path d="M25.188 52.096l12.674-15.478v.16S25.744 52.73 25.744 52.783c-.027.027-.556-.688-.556-.688z" class="st12" fill="#369b88"/>
    <path class="st11" d="M24.87 52.15l12.807-21.644.29.186-12.302 22.49z" fill="#58bca9"/>
    <path class="st11" d="M24.765 52.758l8.731-17.674h.238L25.691 53.34z" fill="#58bca9"/>
    <path class="st12" d="M24.87 53.34l2.514-18.494h.212l-1.931 18.759z" fill="#369b88"/>
    <path class="st11" d="M25.188 53.737l3.89-21.51h.158L26.22 53.604z" fill="#58bca9"/>
    <path class="st11" d="M24.765 52.943L25.4 35.27h.265l.211 17.7z" fill="#58bca9"/>
    <path class="st11" d="M25.4 52.52l-8.414-21.537.133-.185 8.89 21.43z" fill="#58bca9"/>
    <path class="st11" d="M24.765 52.176L22.251 35.56h.265l3.28 16.775z" fill="#58bca9"/>
    <path class="st11" d="M24.606 52.52l-1.058-18.627v-.185l2.275 18.891z" fill="#58bca9"/>
    <path class="st11" d="M26.538 52.652l-11.06-17.806h-.397l10.398 18.23z" fill="#58bca9"/>
    <path class="st11" d="M27.226 52.81l-13.15-14.525-.212.132L25.56 53.05z" fill="#58bca9"/>
    <path class="st11" d="M26.723 52.731l-15.32-14.075L25.957 53.18zM26.3 53.922l16.774 12.303-.159.185-16.404-11.932 11.536 11.218-.238.132-11.933-11.456z" fill="#58bca9"/>
    <path class="st11" d="M26.273 54.24l9.79 13.282-.133.132-10.054-13.282z" fill="#58bca9"/>
    <path class="st12" d="M25.585 54.292L36.46 69.48l.158-.16-10.345-15.08z" fill="#369b88"/>
    <path class="st11" d="M25.876 54.478l7.99 17.41.424-.107-7.938-17.383z" fill="#58bca9"/>
    <path class="st11" d="M25.797 54.08l6.218 20.665L26.3 53.922z" fill="#58bca9"/>
    <path class="st11" d="M26.035 54.319l1.8 11.218h.079l-1.509-11.271z" fill="#58bca9"/>
    <path class="st11" d="M26.22 54.451L27.28 71.12l.185-.026-.688-15.796z" fill="#58bca9"/>
    <path class="st12" d="M26.035 54.319l-.423 14.102.026.053.926-13.652z" fill="#369b88"/>
    <path class="st11" d="M25.956 54.24L23.76 67.786l.211.027 2.25-13.23z" fill="#58bca9"/>
    <path class="st11" d="M25.585 54.292l-3.069 14.685.08.053 3.413-14.526z" fill="#58bca9"/>
    <path d="M25.85 53.87l-6.297 21.14h.185l6.403-20.691z" class="st11" fill="#58bca9"/>
    <path class="st11" d="M25.744 53.79l-8.546 18.23.106.079 8.943-17.172z" fill="#58bca9"/>
    <path class="st11" d="M25.162 54.213L14.79 70.3l.106.08L26.22 54.477l-.582-.926z" fill="#58bca9"/>
    <path class="st11" d="M25.241 53.79L13.335 70.538l.053.053 12.62-16.087z" fill="#58bca9"/>
    <path class="st11" d="M25.717 53.366l-10.53 10.98.106.106L26.14 54.028z" fill="#58bca9"/>
    <path class="st11" d="M25.956 53.578L7.885 66.49l.079.053 18.415-12.41z" fill="#58bca9"/>
    <path class="st12" d="M26.114 53.578l-14.763 7.938v.105l15.319-7.514z" fill="#369b88"/>
    <path class="st11" d="M26.167 53.446L13.6 58.526v.159l12.938-4.551z" fill="#58bca9"/>
    <path d="M25.876 53.181L9.155 59.055l-.08.08s16.88-4.948 16.96-5.028c.106-.08-.159-.926-.159-.926z" class="st11" fill="#58bca9"/>
    <path class="st11" d="M26.167 53.34L6.641 56.277l-.026.185 19.711-2.355z" fill="#58bca9"/>
    <path class="st12" d="M25.903 53.075L8.096 55.113l-.08.08 17.78-1.244z" fill="#369b88"/>
    <path class="st11" d="M26.194 53.208l-15.187.529-.027.132 15.267.106z" fill="#58bca9"/>
    <path class="st11" d="M25.982 52.89H10.186v.106l16.008.318z" fill="#58bca9"/>
    <path d="M25.797 52.705L8.73 51.488l.08.08s17.039 1.798 17.065 1.851c.053.053-.08-.714-.08-.714z" class="st11" fill="#58bca9"/>
    <path class="st11" d="M26.009 52.546L5.027 47.81l-.026.291 21.193 5.556z" fill="#58bca9"/>
    <path class="st11" d="M26.458 52.837L10.345 47.89l-.132.158 16.06 5.715z" fill="#58bca9"/>
    <path class="st11" d="M26.75 53.26l-12.992-9.313-.132.133 12.806 9.816z" fill="#58bca9"/>
    <path class="st11" d="M26.802 53.684L11.165 43.471l-.105.106L26.114 54.24z" fill="#58bca9"/>
    <path class="st12" d="M26.564 52.943l-11.35-9.948-.16.159L25.93 53.657z" fill="#369b88"/>
    <path class="st12" d="M25.93 53.102l-8.441-17.886h-.212l8.097 18.098z" fill="#369b88"/>
    <path class="st12" d="M26.088 52.493l-8.864-11.297-.132.158 8.493 11.88z" fill="#369b88"/>
    <path class="st11" d="M26.405 52.6l-10.98-11.59-.106-.105 10.425 12.488z" fill="#58bca9"/>
    <path class="st11" d="M25.347 53.87l-4.604-17.331.238-.238 5.24 17.171z" fill="#58bca9"/>
    <path class="st12" d="M25.056 54.398l-1.35-16.695.239-.053L26.167 53.5z" fill="#369b88"/>
    <path class="st11" d="M25.268 54.028l.264-17.754.477 17.542z" fill="#58bca9"/>
  </g>
  <g>
    <path class="st11" d="M22.12 25.135L5.74 43.101l.239.158 16.033-17.436-10.636 15.505.318.106 11.033-15.902z" fill="#58bca9"/>
    <path class="st11" d="M22.251 25.506l-8.175 17.462.185.133 8.467-17.569z" fill="#58bca9"/>
    <path class="st11" d="M23.045 25.4l-8.97 19.923-.21-.159 8.386-19.658z" fill="#58bca9"/>
    <path class="st11" d="M22.728 25.665l-5.133 21.801h-.503l5.08-21.775z" fill="#58bca9"/>
    <path class="st11" d="M22.754 25.188L20.373 50.35l1.746-25.215z" fill="#58bca9"/>
    <path class="st11" d="M22.542 25.532l.503 13.282h-.106l-.846-13.255z" fill="#58bca9"/>
    <path class="st11" d="M22.33 25.717l2.673 19.368h-.238l-2.858-18.256z" fill="#58bca9"/>
    <path class="st11" d="M22.542 25.532l3.731 16.087-.026.053L22.04 26.22z" fill="#58bca9"/>
    <path class="st11" d="M22.622 25.4l5.635 15.055-.238.08-5.635-14.685z" fill="#58bca9"/>
    <path class="st12" d="M23.045 25.4l6.906 16.113-.08.106-7.25-15.902z" fill="#369b88"/>
    <path d="M22.622 24.977l12.091 22.807-.211.026L22.384 25.56z" class="st11" fill="#58bca9"/>
    <path class="st11" d="M22.754 24.844l13.97 18.945-.08.132L22.41 26.273z" fill="#58bca9"/>
    <path class="st11" d="M23.495 25.215l15.61 16.034-.079.132-16.642-15.637.423-1.19z" fill="#58bca9"/>
    <path class="st11" d="M23.336 24.712l17.516 16.484-.053.079-18.177-15.558z" fill="#58bca9"/>
    <path class="st12" d="M22.675 24.368l14.605 10.16-.08.132-14.87-9.445z" fill="#369b88"/>
    <path class="st11" d="M22.463 24.633L46.17 35.269l-.08.106L22.093 25.4z" fill="#58bca9"/>
    <path class="st11" d="M22.251 24.712l18.786 5.689v.105l-19.288-5.08z" fill="#58bca9"/>
    <path class="st12" d="M22.172 24.553l15.584 2.937.053.159-15.902-2.223z" fill="#369b88"/>
    <path d="M22.437 24.183l20.531 2.884.106.08s-20.505-1.773-20.61-1.853c-.133-.08-.027-1.111-.027-1.111z" class="st11" fill="#58bca9"/>
    <path class="st11" d="M22.146 24.421l23.098-1.111.053.211-23.125 1.826z" fill="#58bca9"/>
    <path class="st12" d="M22.41 24.05l20.876-1.772.106.08-20.664 2.672z" fill="#369b88"/>
    <path class="st11" d="M22.12 24.289l17.515-2.884.052.132L22.2 25.162z" fill="#58bca9"/>
    <path class="st12" d="M22.251 23.865l18.124-3.65.027.131-18.283 4.075z" fill="#369b88"/>
    <path d="M22.437 23.627l19.288-5.318-.08.132s-19.103 6.007-19.155 6.033c-.027.026-.053-.847-.053-.847z" class="st12" fill="#369b88"/>
    <path class="st11" d="M22.146 23.495L45.11 13.229l.106.318L22.2 24.79z" fill="#58bca9"/>
    <path class="st11" d="M21.722 23.918l17.33-9.366.186.132-17.092 10.24z" fill="#58bca9"/>
    <path class="st12" d="M21.458 24.448L34.21 10.795l.185.132L21.96 25.11z" fill="#369b88"/>
    <path class="st11" d="M21.484 24.95l15.61-15.293.133.106-14.79 15.69z" fill="#58bca9"/>
    <path class="st11" d="M21.616 24.05l10.716-14.022.212.132L22.49 24.739z" fill="#58bca9"/>
    <path class="st11" d="M22.384 24.104L27.94 1.64l.238-.052-5.133 22.621z" fill="#58bca9"/>
    <path class="st11" d="M22.066 23.442l7.54-15.002.213.159-7.012 15.557z" fill="#58bca9"/>
    <path class="st11" d="M21.722 23.627l9.896-15.822.106-.159-9.076 16.749z" fill="#58bca9"/>
    <path class="st11" d="M23.23 24.844L24.5 3.916l-.344-.238-2.037 20.928z" fill="#58bca9"/>
    <path class="st11" d="M23.68 25.374L21.352 5.927h-.265l1.112 18.68z" fill="#58bca9"/>
    <path class="st11" d="M23.336 25.03L18.971 4.71l3.466 20.24zM22.304 25.744l6.562 19.738-.238.053-6.482-19.183 2.936 15.796-.29-.026-3.096-16.246z" fill="#58bca9"/>
    <path class="st11" d="M22.066 26.009l.344 16.483-.185.027-.53-16.643z" fill="#58bca9"/>
    <path class="st12" d="M21.484 25.638l.106 18.68.212-.027.264-18.282z" fill="#369b88"/>
    <path class="st11" d="M21.643 25.956l-3.546 18.838.397.159 3.572-18.786z" fill="#58bca9"/>
    <path class="st11" d="M21.802 25.585l-6.88 20.479 7.382-20.32z" fill="#58bca9"/>
    <path class="st11" d="M21.855 25.93l-5.028 10.186.08.053 5.265-10.055z" fill="#58bca9"/>
    <path class="st11" d="M21.934 26.14L13.15 40.35l.185.08 8.546-13.283z" fill="#58bca9"/>
    <path class="st12" d="M21.855 25.93l-8.52 11.27.026.053 8.626-10.636z" fill="#369b88"/>
    <path class="st11" d="M21.828 25.797l-9.63 9.816.158.132 9.499-9.525z" fill="#58bca9"/>
    <path class="st11" d="M21.484 25.638l-10.98 10.213.026.106 11.192-9.896z" fill="#58bca9"/>
    <path d="M21.96 25.453L4.604 39.079l.158.106L21.96 26.009z" class="st11" fill="#58bca9"/>
    <path class="st11" d="M21.907 25.32L4.42 35.27l.026.132 17.224-8.837z" fill="#58bca9"/>
    <path class="st11" d="M21.193 25.347L3.44 32.464l.026.133 18.441-6.43.053-1.084z" fill="#58bca9"/>
    <path class="st11" d="M21.51 25.03l-19.393 6.8v.079l19.605-5.848z" fill="#58bca9"/>
    <path class="st11" d="M22.146 24.977l-14.95 2.857.027.132 14.896-2.222z" fill="#58bca9"/>
    <path class="st11" d="M22.199 25.268L0 25.348l.026.105 22.199.53z" fill="#58bca9"/>
    <path class="st12" d="M22.357 25.374L5.69 23.31l-.027.08 16.828 2.724z" fill="#369b88"/>
    <path class="st11" d="M22.463 25.294L9.26 22.172l-.079.106 13.176 3.783z" fill="#58bca9"/>
    <path d="M22.384 24.897L5.344 20.03l-.105.026s16.642 5.715 16.748 5.689c.132 0 .397-.847.397-.847z" class="st11" fill="#58bca9"/>
    <path class="st11" d="M22.542 25.215l-17.674-8.89-.132.132 17.463 9.472z" fill="#58bca9"/>
    <path class="st12" d="M22.463 24.818L6.747 16.192l-.106.027 15.24 9.26z" fill="#369b88"/>
    <path class="st11" d="M22.595 25.109L9.922 16.775l-.106.079 12.409 8.89z" fill="#58bca9"/>
    <path class="st11" d="M22.622 24.739L9.763 15.584l-.08.106 12.86 9.525z" fill="#58bca9"/>
    <path d="M22.569 24.474L9.339 13.626l.027.132S22.225 25.083 22.225 25.11c.026.053.344-.635.344-.635z" class="st11" fill="#58bca9"/>
    <path class="st11" d="M22.86 24.474L8.467 8.494l-.186.184 14.076 16.775z" fill="#58bca9"/>
    <path class="st11" d="M23.045 24.95L12.753 11.615l-.185.053 9.79 13.944z" fill="#58bca9"/>
    <path class="st11" d="M23.045 25.453l-5.212-15.081-.185.053 4.789 15.372z" fill="#58bca9"/>
    <path class="st11" d="M22.86 25.85L15.98 8.467l-.158.053 6.138 17.383z" fill="#58bca9"/>
    <path class="st12" d="M23.072 25.109l-3.52-14.71-.211.052 2.805 14.87z" fill="#369b88"/>
    <path class="st12" d="M22.463 24.87l3.44-19.472-.159-.133-3.837 19.447z" fill="#369b88"/>
    <path class="st12" d="M22.94 24.474l-.689-14.34-.211.026.08 14.605z" fill="#369b88"/>
    <path class="st11" d="M23.151 24.712L20.902 8.916l-.053-.132 1.297 16.22z" fill="#58bca9"/>
    <path class="st11" d="M21.537 25.162l6.27-16.801.345-.053-5.662 17.04z" fill="#58bca9"/>
    <path class="st12" d="M21.008 25.426l8.546-14.393.212.08-7.33 14.234z" fill="#369b88"/>
    <path class="st11" d="M21.405 25.241l10.45-14.34-9.736 14.605z" fill="#58bca9"/>
  </g>
</svg>
