<?xml version="1.0" encoding="UTF-8" standalone="no"?>
<!-- Created with Inkscape (http://www.inkscape.org/) -->

<svg
   xmlns:dc="http://purl.org/dc/elements/1.1/"
   xmlns:cc="http://creativecommons.org/ns#"
   xmlns:rdf="http://www.w3.org/1999/02/22-rdf-syntax-ns#"
   xmlns:svg="http://www.w3.org/2000/svg"
   xmlns="http://www.w3.org/2000/svg"
   xmlns:sodipodi="http://sodipodi.sourceforge.net/DTD/sodipodi-0.dtd"
   xmlns:inkscape="http://www.inkscape.org/namespaces/inkscape"
   width="86.171944mm"
   height="42.897778mm"
   viewBox="0 0 305.33366 152"
   id="svg18360"
   version="1.1"
   inkscape:version="0.91 r13725"
   sodipodi:docname="pool_table.svg">
  <defs
     id="defs18362" />
  <sodipodi:namedview
     id="base"
     pagecolor="#ffffff"
     bordercolor="#666666"
     borderopacity="1.0"
     inkscape:pageopacity="0.0"
     inkscape:pageshadow="2"
     inkscape:zoom="4.8608067"
     inkscape:cx="163.03215"
     inkscape:cy="55.617876"
     inkscape:document-units="px"
     inkscape:current-layer="layer1"
     showgrid="false"
     fit-margin-top="0"
     fit-margin-left="0"
     fit-margin-right="0"
     fit-margin-bottom="0"
     inkscape:window-width="2560"
     inkscape:window-height="1414"
     inkscape:window-x="1920"
     inkscape:window-y="0"
     inkscape:window-maximized="1" />
  <metadata
     id="metadata18365">
    <rdf:RDF>
      <cc:Work
         rdf:about="">
        <dc:format>image/svg+xml</dc:format>
        <dc:type
           rdf:resource="http://purl.org/dc/dcmitype/StillImage" />
        <dc:title></dc:title>
      </cc:Work>
    </rdf:RDF>
  </metadata>
  <g
     inkscape:label="Layer 1"
     inkscape:groupmode="layer"
     id="layer1"
     transform="translate(-268.03552,-240.86044)">
    <g
       id="g18953">
      <path
         inkscape:connector-curvature="0"
         d="m 571.36918,387.08184 c 0,2.0853 -1.69333,3.7786 -3.78,3.7786 l -293.77399,0 c -2.08696,0 -3.77967,-1.6933 -3.77967,-3.7786 l 0,-140.4427 c 0,-2.0867 1.69271,-3.7787 3.77967,-3.7787 l 293.77399,0 c 2.08667,0 3.78,1.692 3.78,3.7787 l 0,140.4427"
         style="fill:#32902d;fill-opacity:1;fill-rule:evenodd;stroke:none"
         id="path17328-2" />
      <path
         inkscape:connector-curvature="0"
         d="m 571.36918,387.08184 -2,0 c -0.003,0.98 -0.79866,1.7773 -1.78,1.7786 l -293.77399,0 c -0.9812,0 -1.77814,-0.7986 -1.7796,-1.7786 l 0,-140.4427 c 10e-4,-0.98 0.7984,-1.7773 1.7796,-1.7787 l 293.77399,0 c 0.98134,0 1.77734,0.7987 1.78,1.7787 l 0,140.4427 2,0 2,0 0,-140.4427 c -0.003,-3.192 -2.588,-5.7773 -5.78,-5.7787 l -293.77399,0 c -3.1927,0 -5.77759,2.5867 -5.77967,5.7787 l 0,140.4427 c 0.002,3.192 2.58697,5.7773 5.77967,5.7786 l 293.77399,0 c 3.192,0 5.77734,-2.5866 5.78,-5.7786 l -2,0"
         style="fill:#231f20;fill-opacity:1;fill-rule:nonzero;stroke:none"
         id="path17330" />
      <path
         inkscape:connector-curvature="0"
         d="m 338.20225,388.70423 1,0 0,-144 -1,0 z"
         style="fill:#ffffff;fill-opacity:1;fill-rule:nonzero;stroke:none"
         id="path17332-5" />
      <path
         inkscape:connector-curvature="0"
         d="m 338.70225,345.02714 c -7.59533,0 -14.4672,-3.0773 -19.44533,-8.0547 -4.97707,-4.9786 -8.05467,-11.8506 -8.05467,-19.4453 0,-7.596 3.0776,-14.4667 8.05467,-19.4453 4.97813,-4.9774 11.85,-8.0547 19.44533,-8.0547 l 0,-1 c -15.74013,0 -28.4996,12.76 -28.5,28.5 4e-4,15.74 12.75987,28.5 28.5,28.5 l 0,-1"
         style="fill:#ffffff;fill-opacity:1;fill-rule:nonzero;stroke:none"
         id="path17334-3" />
      <path
         inkscape:connector-curvature="0"
         d="m 535.69718,343.92844 -52.656,-30.4013 52.656,-30.4013 z"
         style="fill:none;fill-opacity:1;fill-rule:evenodd;stroke:#8b1515;stroke-width:3.5;stroke-linecap:round;stroke-linejoin:round;stroke-miterlimit:4;stroke-dasharray:none;stroke-opacity:1"
         id="path17336-4" />
      <path
         inkscape:connector-curvature="0"
         d="m 348.70225,266.19384 135.3336,76 -138.66693,-72.6667 c 0,0 -3.33333,-5.3333 3.33333,-3.3333"
         style="fill:#231f20;fill-opacity:1;fill-rule:evenodd;stroke:none"
         id="path17338-9" />
    </g>
  </g>
</svg>
