<svg xmlns="http://www.w3.org/2000/svg" width="806.026" height="593.987" viewBox="0 0 213.261 157.159">
  <path d="M137.58 156.795l35.52.363c12.175.122 22.126-14.848 22.206-33.408l.264-60.724-79.666-.807-.264 60.724c-.053 18.56 9.766 33.731 21.94 33.852z" fill="#6c5d53"/>
  <path d="M110.514 114.5c.374 18.016 9.8 35.688 9.8 35.688l35.566-1.512 37.622 2.75s10.066-17.328 10.547-35.344c.48-18.016-6.275-21.316-6.275-21.316l-81.225-1.376s-6.408 3.095-6.035 21.11z" fill="#c8beb7"/>
  <path d="M147.526 82.73L69.5 82.97c-26.745.08-48.606-9.737-48.78-21.908l-.581-39.82 175.003-.529.582 39.82c.116 12.171-21.454 22.12-48.2 22.199z" fill="#6c5d53"/>
  <path d="M.036 8.496C.888 15.747 22.369 22.86 22.369 22.86l81.057-.609 85.742 1.107s22.942-6.974 24.037-14.225c1.096-7.251-14.3-8.58-14.3-8.58L13.789 0S-.816 1.245.036 8.496z" fill="#6c5d53"/>
  <path d="M32.729 1.627l73.552.8L184.085.992s15.517 6.77 20.376 14.693c-3.368 4.789-11.596 5.835-11.596 5.835l-167.977.73s-7.841-.965-11.1-5.728C18.207 8.563 32.73 1.65 32.73 1.65z" fill="#483e37"/>
  <path d="M142.555 112.923c-.053-.212-.317-.238-.423-.053-.291.45-.582.9-.9 1.35a9.75 9.75 0 0 0-.45.66c-.423.133-.846.16-1.243.054-1.19-.159-2.408-.37-3.598-.53-.662-.079-3.255-.079-3.916 0-1.19.16-2.408.345-3.598.53-.424.106-.847.08-1.244-.053-.159-.238-.291-.45-.45-.662a23.9 23.9 0 0 1-.9-1.349c-.105-.159-.37-.132-.423.053-.767 2.884-1.296 5.927-.952 8.916.29 2.461 1.032 5.24 2.83 7.065 1.88 1.905 4.234 2.355 6.721 2.513 2.46-.158 4.842-.608 6.72-2.513 1.8-1.826 2.54-4.577 2.832-7.065.29-2.99-.238-6.058-1.006-8.916z" fill="#393939"/>
  <path d="M137.052 121.892c-.45-.9-2.01-1.852-3.096-1.508a.202.202 0 0 0-.132-.053c-1.429.027-3.413.82-2.963 2.593.37 1.588 2.99 1.852 4.233 1.694 1.27-.133 2.672-1.297 1.958-2.726z" fill="#fff"/>
  <path d="M135.994 122.924c0 .37-.741.212-.953.133-.529-.16-.767-.82-.767-1.323.159-.265.556-.609.29-.9-.237-.265-.74-.106-1.057-.026-.16.026-.212.211-.133.344.053.132.133.423.265.529 0 .29.053.608 0 .9-.053.29-.291.423-.556.502-.132.026-.238.053-.37.053h-.132v-.027c.105-.264-.291-.502-.397-.238-.344.82.688.794 1.19.609.344-.132.609-.318.715-.688v-.053c.211.344.502.635.926.767.529.16 1.455.133 1.455-.608 0-.291-.476-.265-.476.026z" fill="#393939"/>
  <path d="M132.528 118.4c.026-.212-.186-.37-.37-.45-.054-.053-.133-.026-.212 0h-.027a.057.057 0 0 0-.053.053l-.026.026c-.053.08-.08.186-.106.265a.392.392 0 0 0 0 .344v.026c.026.106.106.16.212.16l.026.026c.106.106.291.079.37-.053.027-.053.053-.08.08-.133a.404.404 0 0 0 .106-.264zM136.1 118.426a.597.597 0 0 0-.556-.397c-.106 0-.185.053-.212.16a.526.526 0 0 0-.132.555c.106.29.45.397.714.264.212-.105.238-.396.186-.582zM142.317 114.96c0-.185.027-.344 0-.529-.026-.185-.264-.344-.397-.159-.185.239-.344.503-.555.741 0 .027-.027.027-.027.053-.053.027-.08.08-.106.132-.026.106.027.265.16.291.21.027.343.186.449.37.132.265.476.054.423-.184 0-.027.027-.053.027-.08 0-.106 0-.211.026-.317 0-.08.027-.185.027-.265 0-.026 0-.053-.027-.053zM126.627 115.225c-.317-.132-.476-.556-.687-.82-.133-.16-.344-.053-.397.106-.027.079-.053.185-.08.264 0 .027-.026.027-.026.053-.027.318-.027.661-.027.979 0 .132.16.291.291.238.291-.106.556-.291.874-.397.158-.053.238-.344.052-.423zM141.576 120.358c-.238-.291-1.031.185-1.27.29-.714.292-1.481.556-2.037 1.112-.212.212.106.556.344.344.45-.45 1.085-.661 1.667-.926.212-.106.45-.185.661-.265.106-.026.212-.079.318-.105.053-.027.08-.027.08-.027.105.053.21.027.29-.106v-.026c.027-.132.027-.212-.053-.291zM140.36 125.702c-.503-.9-1.218-1.666-1.906-2.434-.211-.211-.529.106-.344.344.688.715 1.35 1.455 1.852 2.329.133.264.53.026.397-.239zM140.862 122.686a12.931 12.931 0 0 0-1.746-.132c-.291 0-.291.476 0 .476.529 0 1.085.027 1.614.106.317.053.45-.397.132-.45zM128.77 121.575a4.787 4.787 0 0 0-2.275-.926c-.29-.027-.29.423 0 .476.741.106 1.455.423 2.037.873.239.185.477-.238.239-.423zM129.062 123.586c-.847.344-1.561.926-2.276 1.481-.238.186 0 .582.238.397.688-.502 1.376-1.085 2.17-1.428.264-.106.132-.556-.132-.45zM128.347 122.5c-.661 0-1.323-.026-1.905.318-.264.16-.026.556.238.397.503-.29 1.112-.238 1.694-.238.264-.026.264-.476-.027-.476z" fill="#fff"/>
  <path d="M158.298 104.694c-.582-1.19-2.222-1.164-3.36-1.19-1.852-.08-3.704.185-5.53.503-1.773.317-1.958 1.428-1.958 3.042 0 .053.027.106.053.159-.291 2.752.318 6.244 3.228 6.641 1.005.132 2.064-.053 3.096-.053 1.084 0 2.17 0 3.201-.423 1.429-.582 1.773-2.09 1.852-3.493.027-1.56.106-3.783-.582-5.186z" fill="#f5acae"/>
  <path d="M149.223 106.044v.08c0 .343.529.343.529 0v-.08c0-.318-.53-.318-.53 0zM151.472 104.403h-.053c-.344 0-.344.53 0 .53h.053c.344 0 .344-.53 0-.53zM151.869 108.16a.314.314 0 0 0-.318.265c-.026.132.027.291.185.318a.266.266 0 0 0 .291-.133c.16-.132.106-.45-.158-.45zM149.884 109.748h-.053c-.344 0-.344.53 0 .53h.053c.344 0 .344-.53 0-.53zM151.604 111.732c-.344 0-.344.53 0 .53s.344-.53 0-.53zM157.028 111.627l-.132-.133c-.238-.238-.609.133-.37.37.052.054.079.08.132.133.238.238.608-.132.37-.37zM154.065 110.277c-.344 0-.344.53 0 .53s.344-.53 0-.53zM157.504 108.425h-.08c-.343 0-.343.53 0 .53h.08c.344 0 .344-.53 0-.53zM154.726 107.446c-.344 0-.344.53 0 .53s.344-.53 0-.53zM154.382 104.986c-.344 0-.344.529 0 .529s.344-.53 0-.53zM156.843 105.726c-.027.027-.053.053-.053.08-.238.238.132.608.37.37.027-.026.053-.053.08-.053.211-.264-.159-.635-.397-.397z" fill="#393939"/>
  <g>
    <path d="M124.828 132.608c-.555-1.164-2.222-1.164-3.36-1.19-1.852-.08-3.704.185-5.53.502-1.772.318-1.958 1.429-1.958 3.043 0 .053.027.106.053.159-.29 2.751.318 6.244 3.228 6.64 1.006.133 2.064-.052 3.096-.052 1.085 0 2.17 0 3.201-.424 1.429-.582 1.773-2.09 1.852-3.492 0-1.561.106-3.757-.582-5.186z" fill="#b8dddf"/>
    <path d="M115.753 133.984v.053c0 .344.53.344.53 0v-.053c0-.344-.53-.344-.53 0zM118.002 132.317h-.053c-.344 0-.344.53 0 .53h.053c.344 0 .344-.53 0-.53zM118.399 136.1a.314.314 0 0 0-.318.265c-.026.132.027.291.186.318a.266.266 0 0 0 .29-.133c.16-.132.106-.476-.158-.45zM116.415 137.688h-.053c-.344 0-.344.53 0 .53h.053c.343 0 .343-.53 0-.53zM118.134 139.672c-.344 0-.344.53 0 .53s.344-.53 0-.53zM123.558 139.54l-.132-.132c-.238-.238-.609.132-.37.37l.132.133c.238.238.608-.133.37-.37zM120.595 138.217c-.344 0-.344.53 0 .53s.344-.53 0-.53zM124.035 136.365h-.08c-.344 0-.344.53 0 .53h.08c.343 0 .343-.53 0-.53zM121.256 135.36c-.344 0-.344.529 0 .529s.344-.53 0-.53zM120.912 132.926c-.344 0-.344.529 0 .529s.344-.53 0-.53zM123.373 133.666l-.053.053c-.238.238.132.609.37.37l.08-.079c.212-.211-.159-.582-.397-.344z" fill="#393939"/>
  </g>
  <path d="M148.165 124.909v4.55c0 .688.529.688.529 0v-4.55c0-.688-.53-.688-.53 0zM149.17 124.644v4.419c0 .688.53.688.53 0v-4.419c0-.688-.53-.688-.53 0zM150.916 128.666c-.238-1.112-.159-2.46-.159-3.625 0-.688-.529-.688-.529 0 0 1.402-.053 2.857.238 4.154.133.635.582.106.45-.53zM152.08 124.909c0-.688-.529-.688-.529 0 0 1.428.08 2.857.132 4.286.027.688.556.688.53 0a77.278 77.278 0 0 1-.133-4.286zM112.631 114.987v4.55c0 .689.53.689.53 0v-4.55c0-.688-.53-.688-.53 0zM113.636 114.722v4.419c0 .688.53.688.53 0v-4.419c0-.688-.53-.688-.53 0zM115.383 118.744c-.238-1.111-.16-2.46-.16-3.625 0-.688-.528-.688-.528 0 0 1.402-.053 2.858.238 4.154.132.635.582.08.45-.53zM116.547 114.987c0-.688-.53-.688-.53 0 0 1.429.08 2.857.133 4.286.026.688.556.688.53 0a77.278 77.278 0 0 1-.133-4.286zM137.396 108.637h-1.058c0-.133 0-.291-.027-.424.053.027.106.027.159.027.265-.053.53-.053.794 0 .344.053.476-.45.132-.503-.344-.053-.714-.08-1.058 0-.027 0-.027 0-.053.027v-.291h.846c.344 0 .344-.53 0-.53h-1.111c-.132 0-.29.08-.264.265 0 .582.052 1.138.079 1.72 0 .132.132.264.265.264h1.322c.318-.026.318-.555-.026-.555zm-2.328-1.403c-.133.292-.212.583-.344.874-.186-.291-.318-.635-.45-.953-.132-.317-.582-.053-.45.265.212.502.423.952.767 1.376.106.132.344.079.424-.053.238-.397.344-.847.529-1.27.132-.265-.344-.556-.476-.239zm-3.546 1.985c-.37-.08-.794-.053-1.19 0-.16.026-.344-.08-.344-.265v-1.587c0-.344.529-.344.529 0v1.296c.37-.026.767-.026 1.138.053.343.053.185.556-.133.503zm1.852-1.138c-.026-.08-.132-.212-.211-.29a.426.426 0 0 0-.186-.107c-.026.08-.105.133-.211.133s-.212 0-.212.105c0 .133.08.291.185.37.133.107.344.133.503.133.053 0 .08-.026.132-.053 0 0 .027-.053.027-.026.053-.08.026-.133-.027-.265zm.212-.608c.291.317.53.873.185 1.243-.423.45-1.243.212-1.56-.238-.186-.265-.213-.609-.107-.847-.026-.079 0-.158.08-.211.423-.344 1.005-.344 1.402.053zm4.022-.635c-.133.026-.291-.027-.318-.186-.185-1.058-1.587-.45-2.064-.185-.132.08-.37 0-.396-.159-.292-.687-.688-.793-1.138-.344 0 .08-.053.133-.08.186.08.29-.317.529-.476.238-.476-.98-2.381-1.455-2.751-.132-.053.158-.239.264-.397.158-.847-.026-1.191.291-1.059.98.133.184.238.343.37.528.16.133.054.477-.184.45-.98-.106-.715 1.985.529 1.217.185-.106.476.08.397.291-.397.98 1.322.635 1.614.265.211-.265.529.08.423.317-.132.291 1.296.715 1.587.08a.834.834 0 0 1 .053-.609c.106-.185.45-.159.477.053a.872.872 0 0 1 0 .37c.264.345 1.534.636 1.799-.185.08-.264.423-.238.502 0 .344.45.741.503 1.191.186.45-.45.609-.953.53-1.482 0-.159.131-.238.264-.265.952-.106.29-2.037-.873-1.772zm1.19 2.249c0 .793-.211 1.64-1.111 1.905-.582.185-1.085.158-1.402-.212-.556.608-1.72.608-2.302.185-.609.662-2.064.582-2.381-.08-.794.371-2.038.186-2.144-.608-1.402.37-1.957-1.984-.82-2.381-.529-1.032.185-2.593 1.35-2.064.608-1.19 2.407-1.085 3.28-.159.37-.74 1.562-.529 1.958.212.874-.423 2.144-.582 2.487.423 1.588-.079 2.408 2.329 1.085 2.779z" fill="#c29f41"/>
  <path d="M116.282 126.76h-.132c-.344 0-.344.53 0 .53h.132c.344 0 .344-.53 0-.53zM121.045 119.882c-.344 0-.344.529 0 .529s.344-.53 0-.53zM118.134 110.674c-.08-.08-.185-.159-.317-.159-.159.027-.238.106-.265.265 0 .106.053.185.133.264.079.08.158.08.238.08.211 0 .397-.265.211-.45zM144.275 106.785c-.132-.027-.29.053-.317.185v.026c-.212.238.158.609.37.37.053-.079.132-.158.132-.237.027-.16-.026-.291-.185-.344zM147.503 120.41h-.212c-.158.054-.211.186-.185.318.053.318.53.318.582 0 .027-.132-.026-.264-.185-.317zM157.398 129.221h-.211c-.159.053-.212.186-.185.318.053.317.529.317.582 0 .026-.132-.027-.291-.186-.318zM151.842 136.603h-.211c-.16.053-.212.185-.186.318.053.317.53.317.582 0a.287.287 0 0 0-.185-.318zM129.432 135.81h-.212c-.158.052-.211.185-.185.317.053.317.53.317.582 0 .027-.132-.026-.265-.185-.318zM122.765 106.838h-.212c-.159.053-.212.185-.185.317.053.318.529.318.582 0 .026-.132-.027-.264-.185-.317z" fill="#393939"/>
  <g>
    <path d="M140.148 135.624c-.16-.317-.662-.45-.953-.29-.238.132-.397.37-.503.608-.264-.159-.582-.238-.873-.133-.423.133-.529.583-.37.98.159.37.503.529.847.687.185.08.37.186.582.265.079.026.132.053.211.106.053.026.106.08.053.026v-.026l.053.053c0 .211.344.37.503.132.37-.635.82-1.693.45-2.408z" fill="#f5acae"/>
    <path d="M139.724 136.339c-.026.37-.158.74-.344 1.084-.053-.026-.079-.052-.132-.079-.265-.132-.556-.238-.82-.37-.238-.133-.556-.238-.556-.556 0-.317.635.053.688.132.08.08.159.08.238.053.106.027.238-.026.291-.185a1.13 1.13 0 0 1 .291-.556c.318-.317.37.318.344.477zm.424-.715c-.16-.317-.662-.45-.953-.29-.238.132-.397.37-.503.608-.264-.159-.582-.238-.873-.133-.423.133-.529.583-.37.98.159.37.503.529.847.687.185.08.37.186.582.265.079.026.132.053.211.106.053.026.106.08.053.026v-.026l.053.053c0 .211.344.37.503.132.37-.635.82-1.693.45-2.408z" fill="#393939"/>
  </g>
  <g>
    <path d="M156.287 117.977c-.159-.318-.661-.45-.952-.291-.238.132-.397.37-.503.608-.265-.159-.582-.238-.873-.132-.423.132-.53.582-.37.979.158.37.502.529.846.688.185.079.37.185.582.264.08.027.133.053.212.106.053.027.106.08.053.027v-.027l.053.053c0 .212.344.37.502.132.37-.635.82-1.693.45-2.407z" fill="#b8dddf"/>
    <path d="M155.89 118.664c-.026.37-.158.741-.344 1.085-.053-.026-.079-.053-.132-.08-.264-.131-.556-.237-.82-.37-.238-.132-.556-.238-.556-.555 0-.318.635.053.688.132.08.08.159.08.238.053.106.027.238-.026.291-.185a1.13 1.13 0 0 1 .291-.556c.291-.29.344.344.344.476zm.397-.687c-.159-.318-.661-.45-.952-.291-.238.132-.397.37-.503.608-.265-.159-.582-.238-.873-.132-.423.132-.53.582-.37.979.158.37.502.529.846.688.185.079.37.185.582.264.08.027.133.053.212.106.053.027.106.08.053.027v-.027l.053.053c0 .212.344.37.502.132.37-.635.82-1.693.45-2.407z" fill="#393939"/>
  </g>
  <g>
    <path d="M182.031 113.77c-.053-.212-.317-.238-.423-.053-.291.45-.582.9-.9 1.35a9.75 9.75 0 0 0-.45.66c-.423.133-.846.16-1.243.054-1.19-.16-2.408-.37-3.598-.53-.662-.079-3.255-.079-3.916 0-1.19.16-2.408.344-3.599.53-.423.105-.846.079-1.243-.053-.159-.239-.291-.45-.45-.662a23.9 23.9 0 0 1-.9-1.35c-.105-.158-.37-.132-.423.054-.767 2.884-1.296 5.926-.952 8.916.29 2.46 1.032 5.239 2.83 7.065 1.88 1.905 4.234 2.354 6.721 2.513 2.46-.159 4.842-.608 6.72-2.513 1.8-1.826 2.54-4.578 2.832-7.065.29-2.99-.239-6.059-1.006-8.916z" fill="#393939"/>
    <path d="M176.528 122.739c-.45-.9-2.011-1.852-3.096-1.508a.202.202 0 0 0-.132-.053c-1.429.026-3.413.82-2.963 2.593.37 1.587 2.99 1.852 4.233 1.693 1.27-.132 2.672-1.296 1.958-2.725z" fill="#fff"/>
    <path d="M175.47 123.77c0 .371-.741.213-.953.133-.53-.159-.767-.82-.767-1.323.158-.264.555-.608.29-.9-.237-.264-.74-.105-1.058-.026-.158.027-.211.212-.132.344.053.133.132.424.265.53 0 .29.053.608 0 .899-.053.291-.291.423-.556.503-.132.026-.238.053-.37.053h-.133v-.027c.106-.264-.29-.503-.396-.238-.344.82.687.794 1.19.609.344-.133.609-.318.715-.688v-.053c.211.344.502.635.926.767.529.159 1.455.132 1.455-.609 0-.29-.476-.264-.476.027z" fill="#393939"/>
    <path d="M172.003 119.247c.027-.212-.185-.37-.37-.45-.053-.053-.132-.027-.212 0h-.026a.057.057 0 0 0-.053.053l-.026.026c-.053.08-.08.185-.106.265a.392.392 0 0 0 0 .344v.026c.026.106.106.159.211.159l.027.026c.106.106.29.08.37-.053.027-.052.053-.079.08-.132a.404.404 0 0 0 .105-.264zM175.575 119.273a.597.597 0 0 0-.555-.397c-.106 0-.185.053-.212.159a.526.526 0 0 0-.132.556c.106.29.45.396.714.264.212-.106.238-.397.185-.582zM181.793 115.807c0-.185.027-.344 0-.53-.026-.184-.265-.343-.397-.158-.185.238-.344.503-.555.74 0 .027-.027.027-.027.054-.053.026-.08.08-.106.132-.026.106.027.265.159.291.212.027.344.185.45.37.132.265.476.053.423-.185 0-.026.027-.053.027-.079 0-.106 0-.212.026-.318 0-.079.027-.185.027-.264 0-.027 0-.053-.027-.053zM166.103 116.072c-.317-.133-.476-.556-.688-.82-.132-.16-.344-.054-.397.105-.026.08-.052.185-.079.265 0 .026-.026.026-.026.053-.027.317-.027.661-.027.979 0 .132.159.29.291.238.291-.106.556-.291.873-.397.16-.053.238-.344.053-.423zM181.052 121.204c-.238-.29-1.032.186-1.27.292-.714.29-1.481.555-2.037 1.11-.212.212.106.556.344.345.45-.45 1.085-.662 1.667-.926.211-.106.45-.186.661-.265.106-.026.212-.08.318-.106.053-.026.08-.026.08-.026.105.053.21.026.29-.106v-.026c.027-.133.027-.212-.053-.292zM179.835 126.549c-.503-.9-1.217-1.667-1.905-2.434-.212-.212-.529.106-.344.344.688.714 1.35 1.455 1.852 2.328.133.265.53.027.397-.238zM180.338 123.533a12.931 12.931 0 0 0-1.746-.132c-.291 0-.291.476 0 .476.529 0 1.084.026 1.614.106.317.053.45-.397.132-.45zM168.246 122.422a4.787 4.787 0 0 0-2.275-.926c-.291-.027-.291.423 0 .476.74.106 1.455.423 2.037.873.238.185.477-.238.238-.423zM168.537 124.432c-.846.344-1.56.926-2.275 1.482-.238.185 0 .582.238.397.688-.503 1.376-1.085 2.17-1.429.264-.106.132-.555-.133-.45zM167.823 123.348c-.661 0-1.323-.027-1.905.317-.265.159-.026.556.238.397.503-.291 1.111-.238 1.694-.238.264-.027.264-.476-.027-.476z" fill="#fff"/>
    <path d="M197.774 105.541c-.582-1.19-2.223-1.164-3.36-1.19-1.852-.08-3.704.185-5.53.502-1.773.318-1.958 1.429-1.958 3.043 0 .053.026.106.053.159-.291 2.751.317 6.244 3.228 6.64 1.005.133 2.064-.052 3.095-.052 1.085 0 2.17 0 3.202-.424 1.429-.582 1.773-2.09 1.852-3.492.026-1.561.106-3.784-.582-5.186z" fill="#f5acae"/>
    <path d="M188.699 106.89v.08c0 .344.529.344.529 0v-.08c0-.317-.53-.317-.53 0zM190.948 105.25h-.053c-.344 0-.344.53 0 .53h.053c.344 0 .344-.53 0-.53zM191.345 109.007a.314.314 0 0 0-.318.265c-.026.132.026.29.185.317a.266.266 0 0 0 .291-.132c.159-.132.106-.45-.158-.45zM189.36 110.595h-.053c-.344 0-.344.529 0 .529h.053c.344 0 .344-.53 0-.53zM191.08 112.579c-.344 0-.344.53 0 .53s.344-.53 0-.53zM196.504 112.473l-.132-.132c-.239-.238-.609.132-.37.37l.131.133c.239.238.609-.133.37-.37zM193.54 111.124c-.343 0-.343.529 0 .529.345 0 .345-.53 0-.53zM196.98 109.272h-.08c-.343 0-.343.529 0 .529h.08c.344 0 .344-.53 0-.53zM194.202 108.293c-.344 0-.344.529 0 .529s.344-.53 0-.53zM193.858 105.832c-.344 0-.344.53 0 .53s.344-.53 0-.53zM196.319 106.573c-.027.026-.053.053-.053.08-.238.238.132.608.37.37.027-.027.053-.053.08-.053.211-.265-.16-.635-.397-.397z" fill="#393939"/>
    <g>
      <path d="M164.304 133.455c-.556-1.164-2.222-1.164-3.36-1.191-1.852-.08-3.704.185-5.53.503-1.773.317-1.958 1.429-1.958 3.042 0 .053.027.106.053.16-.29 2.75.318 6.243 3.228 6.64 1.005.133 2.064-.053 3.096-.053 1.084 0 2.17 0 3.201-.423 1.429-.582 1.773-2.09 1.852-3.492 0-1.562.106-3.758-.582-5.186z" fill="#b8dddf"/>
      <path d="M155.229 134.83v.053c0 .344.53.344.53 0v-.052c0-.344-.53-.344-.53 0zM157.478 133.164h-.053c-.344 0-.344.529 0 .529h.053c.344 0 .344-.53 0-.53zM157.875 136.947a.314.314 0 0 0-.318.265c-.026.132.027.29.185.317a.266.266 0 0 0 .291-.132c.16-.132.106-.476-.158-.45zM155.89 138.535h-.053c-.344 0-.344.529 0 .529h.053c.344 0 .344-.53 0-.53zM157.61 140.519c-.344 0-.344.53 0 .53s.344-.53 0-.53zM163.034 140.387l-.132-.133c-.238-.238-.609.133-.37.37.052.054.079.08.132.133.238.238.608-.132.37-.37zM160.07 139.064c-.343 0-.343.529 0 .529.345 0 .345-.53 0-.53zM163.51 137.212h-.079c-.344 0-.344.529 0 .529h.08c.343 0 .343-.53 0-.53zM160.732 136.206c-.344 0-.344.53 0 .53s.344-.53 0-.53zM160.388 133.772c-.344 0-.344.53 0 .53s.344-.53 0-.53zM162.849 134.513l-.053.053c-.238.238.132.608.37.37l.08-.079c.211-.212-.159-.582-.397-.344z" fill="#393939"/>
    </g>
    <path d="M187.64 125.755v4.551c0 .688.53.688.53 0v-4.55c0-.689-.53-.689-.53 0zM188.646 125.49v4.42c0 .687.529.687.529 0v-4.42c0-.687-.53-.687-.53 0zM190.392 129.512c-.238-1.11-.159-2.46-.159-3.624 0-.688-.529-.688-.529 0 0 1.402-.053 2.857.238 4.154.133.635.582.105.45-.53zM191.556 125.755c0-.688-.529-.688-.529 0 0 1.429.08 2.858.132 4.287.027.687.556.687.53 0a77.278 77.278 0 0 1-.133-4.287zM152.107 115.833v4.551c0 .688.529.688.529 0v-4.55c0-.688-.53-.688-.53 0zM153.112 115.569v4.418c0 .688.53.688.53 0v-4.418c0-.688-.53-.688-.53 0zM154.858 119.59c-.238-1.11-.158-2.46-.158-3.624 0-.688-.53-.688-.53 0 0 1.402-.052 2.857.239 4.154.132.635.582.079.45-.53zM156.023 115.833c0-.687-.53-.687-.53 0 0 1.43.08 2.858.133 4.287.026.688.555.688.529 0a77.278 77.278 0 0 1-.132-4.287zM176.872 109.483h-1.059c0-.132 0-.29-.026-.423.053.027.106.027.159.027.264-.053.529-.053.794 0 .343.052.476-.45.132-.503-.344-.053-.715-.08-1.059 0-.026 0-.026 0-.052.026v-.29h.846c.344 0 .344-.53 0-.53h-1.111c-.132 0-.291.08-.265.265 0 .582.053 1.137.08 1.72 0 .132.132.264.264.264h1.323c.318-.026.318-.556-.026-.556zm-2.329-1.402c-.132.291-.211.582-.343.873-.186-.29-.318-.635-.45-.952-.133-.318-.582-.053-.45.264.212.503.423.953.767 1.376.106.132.344.08.424-.053.238-.397.344-.846.529-1.27.132-.264-.344-.555-.477-.238zm-3.545 1.985c-.37-.08-.794-.053-1.19 0-.16.026-.345-.08-.345-.265v-1.588c0-.344.53-.344.53 0v1.297c.37-.027.767-.027 1.137.053.344.053.186.555-.132.503zm1.852-1.138c-.026-.08-.132-.212-.212-.291a.426.426 0 0 0-.185-.106c-.026.08-.106.132-.211.132-.106 0-.212 0-.212.106 0 .132.08.291.185.37.132.106.344.133.503.133.053 0 .08-.027.132-.053 0 0 .027-.053.027-.027.053-.079.026-.132-.027-.264zm.212-.609c.29.318.529.873.185 1.244-.423.45-1.244.211-1.561-.238-.185-.265-.212-.609-.106-.847-.026-.08 0-.159.08-.212.423-.344 1.005-.344 1.402.053zm4.021-.635c-.132.027-.29-.026-.317-.185-.185-1.058-1.588-.45-2.064-.185-.132.08-.37 0-.397-.159-.29-.688-.688-.794-1.137-.344 0 .08-.053.132-.08.185.08.291-.317.53-.476.238-.476-.978-2.381-1.455-2.752-.132-.053.159-.238.265-.397.159-.846-.027-1.19.291-1.058.979.132.185.238.344.37.529.16.132.053.476-.185.45-.979-.106-.714 1.984.53 1.217.185-.106.476.08.396.291-.396.979 1.323.635 1.614.265.212-.265.53.079.424.317-.133.291 1.296.714 1.587.08a.834.834 0 0 1 .053-.61c.106-.184.45-.158.476.054a.872.872 0 0 1 0 .37c.265.344 1.535.635 1.8-.185.079-.265.423-.238.502 0 .344.45.741.503 1.19.185.45-.45.61-.952.53-1.481 0-.16.132-.239.265-.265.952-.106.29-2.037-.874-1.773zm1.191 2.25c0 .793-.212 1.64-1.111 1.904-.582.185-1.085.159-1.402-.211-.556.608-1.72.608-2.302.185-.609.661-2.064.582-2.382-.08-.793.37-2.037.186-2.143-.608-1.402.37-1.958-1.985-.82-2.381-.53-1.032.185-2.593 1.35-2.064.608-1.19 2.407-1.085 3.28-.159.37-.74 1.561-.53 1.958.212.873-.424 2.143-.582 2.487.423 1.588-.08 2.408 2.328 1.085 2.778z" fill="#c29f41"/>
    <path d="M155.758 127.607h-.132c-.344 0-.344.53 0 .53h.132c.344 0 .344-.53 0-.53zM160.52 120.728c-.343 0-.343.53 0 .53.345 0 .345-.53 0-.53zM157.61 111.52c-.08-.079-.185-.158-.317-.158-.16.026-.238.106-.265.265 0 .105.053.185.132.264.08.08.16.08.238.08.212 0 .397-.265.212-.45zM183.751 107.631c-.132-.026-.291.053-.318.186v.026c-.211.238.16.609.37.37.054-.079.133-.158.133-.238.027-.158-.026-.29-.185-.344zM186.979 121.257h-.212c-.159.053-.211.186-.185.318.053.317.53.317.582 0 .027-.132-.026-.265-.185-.318zM196.874 130.068h-.211c-.16.053-.212.185-.186.318.053.317.53.317.583 0 .026-.133-.027-.292-.186-.318zM191.318 137.45h-.212c-.158.053-.211.185-.185.317.053.318.53.318.582 0a.287.287 0 0 0-.185-.317zM168.908 136.656h-.212c-.159.053-.211.185-.185.318.053.317.53.317.582 0 .027-.133-.026-.265-.185-.318zM162.24 107.684h-.211c-.16.053-.212.185-.186.318.053.317.53.317.583 0 .026-.133-.027-.265-.186-.318z" fill="#393939"/>
    <g>
      <path d="M179.623 136.47c-.158-.317-.661-.449-.952-.29-.238.132-.397.37-.503.608-.264-.158-.582-.238-.873-.132-.423.132-.529.582-.37.98.158.37.502.528.846.687.186.08.37.185.582.265.08.026.133.053.212.105.053.027.106.08.053.027v-.027l.053.053c0 .212.344.37.503.133.37-.635.82-1.694.45-2.408z" fill="#f5acae"/>
      <path d="M179.2 137.185c-.026.37-.159.741-.344 1.085-.053-.026-.08-.053-.132-.08-.265-.132-.556-.237-.82-.37-.238-.132-.556-.238-.556-.555 0-.318.635.053.688.132.08.08.159.08.238.053.106.026.238-.027.291-.185a1.13 1.13 0 0 1 .291-.556c.318-.317.37.318.344.476zm.423-.714c-.158-.318-.661-.45-.952-.291-.238.132-.397.37-.503.608-.264-.158-.582-.238-.873-.132-.423.132-.529.582-.37.98.158.37.502.528.846.687.186.08.37.185.582.265.08.026.133.053.212.105.053.027.106.08.053.027v-.027l.053.053c0 .212.344.37.503.133.37-.635.82-1.694.45-2.408z" fill="#393939"/>
    </g>
    <g>
      <path d="M195.763 118.823c-.159-.317-.661-.45-.952-.29-.239.131-.397.37-.503.608-.265-.159-.582-.238-.873-.133-.424.133-.53.583-.37.98.158.37.502.529.846.687.185.08.37.186.582.265.08.026.132.053.212.106.053.026.106.08.053.026v-.026l.053.053c0 .211.344.37.502.132.37-.635.82-1.693.45-2.408z" fill="#b8dddf"/>
      <path d="M195.366 119.511c-.026.37-.159.741-.344 1.085-.053-.027-.08-.053-.132-.08-.265-.132-.556-.238-.82-.37-.238-.132-.556-.238-.556-.555 0-.318.635.052.688.132.08.08.159.08.238.053.106.026.238-.027.291-.185a1.13 1.13 0 0 1 .291-.556c.291-.291.344.344.344.476zm.397-.688c-.159-.317-.661-.45-.952-.29-.239.131-.397.37-.503.608-.265-.159-.582-.238-.873-.133-.424.133-.53.583-.37.98.158.37.502.529.846.687.185.08.37.186.582.265.08.026.132.053.212.106.053.026.106.08.053.026v-.026l.053.053c0 .211.344.37.502.132.37-.635.82-1.693.45-2.408z" fill="#393939"/>
    </g>
  </g>
</svg>
