<svg xmlns="http://www.w3.org/2000/svg" width="119.995" height="119.995" viewBox="0 0 119.815 119.995">
  <defs>
    <clipPath id="a">
      <path d="M4196.47 3919.83c0-248.52-201.47-449.98-449.98-449.98-248.52 0-449.98 201.46-449.98 449.98 0 248.51 201.46 449.98 449.98 449.98 248.51 0 449.98-201.47 449.98-449.98z"/>
    </clipPath>
  </defs>
  <g clip-path="url(#a)" transform="matrix(.13333 0 0 -.13333 -439.685 582.641)" fill="#c8b7b7">
    <path d="M4196.47 3919.83c0-248.52-201.47-449.98-449.98-449.98-248.52 0-449.98 201.46-449.98 449.98 0 248.51 201.46 449.98 449.98 449.98 248.51 0 449.98-201.47 449.98-449.98"/>
  </g>
</svg>
