<svg xmlns="http://www.w3.org/2000/svg" width="1603.404" height="989.274" viewBox="0 0 424.234 261.745">
  <path d="M401.393 261.745l-370.416-2.453L32.694 0l370.417 2.454z" fill="#d2d4b7"/>
  <path d="M282.02 237.4h-.08.08z" fill="#ffedb1"/>
  <path d="M104.3 181.175l-29.66-.185-3.546-.026-31.327-.212c-9.816-.053-17.7-8.52-17.62-18.865.052-8.863 5.9-16.219 13.731-18.15a13.824 13.824 0 0 1 3.651-.503l19.341.132c4.313.027 7.832-3.65 7.858-8.202.027-4.55-3.44-8.281-7.752-8.308v-.079l-39.476-.264c-10.848-.08-19.579-9.42-19.5-20.876.08-11.457 8.943-20.69 19.791-20.638l59.505.397c3.52.027 6.562-3.386 6.747-7.831.212-4.763-2.752-8.705-6.456-8.732l-3.069-.026h.344l-13.6-.08c-7.62-.052-13.705-6.588-13.652-14.578.053-7.99 6.244-14.446 13.811-14.393l43.55.29c1.562-.634 2.7-2.222 2.7-4.1.026-2.435-1.853-4.419-4.155-4.445h1.006c-7.25-.053-13.07-6.297-13.044-13.944.053-7.646 5.98-13.838 13.203-13.785l212.275 1.403c7.25.053 13.07 6.297 13.044 13.943-.053 7.647-5.98 13.838-13.203 13.785l45.588.291 8.122.053c9.816.053 17.701 8.52 17.622 18.865-.053 8.863-5.9 16.219-13.732 18.15a13.824 13.824 0 0 1-3.651.503l-22.12-.159c-3.598-.026-6.535 3.678-6.588 8.229-.026 4.577 2.858 8.308 6.456 8.334l57.573.37c8.97.053 16.193 7.78 16.114 17.278-.053 9.472-7.382 17.118-16.352 17.039l-45.535-.291h.344c-6.059.159-10.927 5.37-10.98 11.8-.053 6.43 4.763 11.721 10.822 11.96h-.344l13.6.079c7.566.053 13.678 6.588 13.625 14.578-.053 7.99-6.244 14.447-13.81 14.394L332 174.085c-1.561.635-2.699 2.222-2.699 4.1-.027 2.435 1.852 4.42 4.154 4.446h-1.006c7.25.053 13.07 6.297 13.044 13.943-.052 6.853-4.789 12.515-10.98 13.6l-54.319-.291c-8.122-.053-14.763 6.059-14.816 13.626-.053 7.593 6.508 13.785 14.631 13.837h.873c7.25.053 13.07 4.63 13.044 10.266-.026 5.61-5.927 10.134-13.176 10.08l-163.3-1.084c-7.25-.053-13.071-4.63-13.045-10.266.027-5.609 5.927-10.133 13.176-10.08l-10.715-.08-30.56-.211c-9.79-.053-17.7-6.271-17.647-13.865.053-6.482 5.873-11.88 13.679-13.282 1.084-.238 2.249-.344 3.44-.344l28.865.186zM404.046 213.243l-29.978-.212c-6.27-.053-11.324-5.16-11.297-11.456.053-6.27 5.16-11.324 11.456-11.298l29.977.212c6.271.053 11.325 5.16 11.298 11.456-.053 6.27-5.16 11.324-11.456 11.298z" fill="#fbd08a"/>
  <g>
    <g fill="#fde090">
      <path d="M408.12 87.566c8.97.053 16.193 7.779 16.113 17.277-.052 9.472-7.381 17.119-16.35 17.04l-8.573-.054.238-34.316zM375.788 145.457c7.567.053 13.68 6.588 13.626 14.578-.053 7.99-6.244 14.446-13.811 14.394l-3.228-.027.185-28.972zM390.129 52.112c-.053 8.863-5.9 16.219-13.732 18.15-1.059.291-2.17.476-3.334.476l.238-37.491c9.446.53 16.907 8.81 16.828 18.865zM372.742 121.635l.228-34.316 24.818.164-.228 34.317zM364.385 33.194l7.223.053-.238 37.518-20.69-.132c-1.562 0-3.017.687-4.128 1.852l.264-39.397zM350.52 87.195l20.691.133-.238 34.316-8.652-.053h.344c-6.059.159-10.927 5.371-10.98 11.8-.053 6.43 4.762 11.722 10.821 11.96h-.344l8.652.053-.185 28.972-24.818-.16.582-88.926c1.138 1.165 2.566 1.879 4.128 1.905zM345.017 33.062l-.29 42.174a10.043 10.043 0 0 0-.689 3.625c0 1.297.212 2.54.635 3.625l-.608 91.73-12.012-.078c-1.561.635-2.7 2.222-2.7 4.1-.026 2.435 1.853 4.42 4.155 4.446h-1.006c4.975.026 9.26 2.99 11.483 7.302l-.079 13.282c-1.905 3.625-5.318 6.27-9.34 6.959l-15.53-.08 1.163-177.244zM332 19.118c-.053 7.144-5.213 13.018-11.8 13.706l.184-27.57c6.589.767 11.669 6.694 11.616 13.864zM318.638 5.148l-1.35 205-24.817-.16 1.35-204.999zM293.953 247.665c0 1.852-.662 3.572-1.773 5.054l.08-10.107c1.084 1.481 1.72 3.201 1.693 5.053zM280.776 257.746l-15.187-.106.212-30.903c1.508 6.059 7.302 10.61 14.261 10.636h.873c3.81.026 7.223 1.323 9.604 3.334l-.079 13.784c-2.434 2.038-5.874 3.281-9.684 3.255zM292.1 4.99l-1.349 205.025-10.504-.053c-6.958-.053-12.806 4.419-14.393 10.451l1.429-215.582zM265.538 4.8l-1.675 252.837-24.817-.165L240.72 4.636zM238.961 4.62l-1.675 252.836-24.818-.165 1.675-252.835zM212.41 4.44l-1.675 252.835-24.817-.164 1.674-252.836zM185.833 4.285l-1.675 252.836-24.818-.164L161.015 4.12zM159.282 4.105l-1.675 252.836-24.818-.165L134.464 3.94zM105.516 31.474h.477v.027c-.16 0-.318-.027-.477-.027z"/>
      <path d="M93.478 17.53c.053-7.46 5.688-13.52 12.7-13.758l-.185 27.702c-7.012-.344-12.568-6.482-12.515-13.943zM104.432 246.395c0-.476.052-.952.132-1.402l-.027 2.831c-.053-.476-.105-.953-.105-1.429zM74.64 180.99l-3.546-.026-17.489-.106.238-37.518 4.974.026c4.313.027 7.832-3.65 7.859-8.202.026-4.55-3.44-8.281-7.753-8.308v-.079l-4.974-.026.265-41.513 24.818.158-.635 95.62zM76.333 236.05c-9.79-.053-17.7-6.27-17.648-13.864.053-6.482 5.874-11.88 13.68-13.282 1.084-.238 2.248-.344 3.439-.344l2.434.026-.185 27.517zM76.465 68.807h.344l-13.6-.08c-3.386-.026-6.482-1.349-8.837-3.492l.16-22.093c2.407-2.143 5.502-3.413 8.89-3.386l15.954.105-.186 28.999zM52.515 85.223l-.275 41.513-24.818-.165.275-41.513zM49.61 54.149c.026-3.493 1.217-6.668 3.175-9.155l-.132 18.362a14.98 14.98 0 0 1-3.043-9.207zM39.767 180.752c-4.974-.026-9.472-2.222-12.673-5.741l.185-26.194c2.328-2.487 5.265-4.286 8.599-5.107a13.824 13.824 0 0 1 3.651-.502l12.62.08-.237 37.517zM22.12 161.86c.026-4.074 1.27-7.804 3.386-10.874l-.132 21.802a19.402 19.402 0 0 1-3.254-10.927zM19.474 126.513c-8.678-.053-15.981-6.06-18.547-14.314l.079-13.124C3.652 90.847 11.06 84.946 19.738 85l6.192.053-.265 41.513zM81.095 39.861L80.91 69.02c3.043.846 5.265 4.392 5.08 8.52-.159 3.783-2.381 6.799-5.186 7.62l-.608 92.286-.027 3.545h1.323c8.15.053 14.711 6.27 14.658 13.864-.053 7.594-6.694 13.732-14.843 13.68h-1.323l-.08 10.345-.105 17.171 24.818.159.106-17.172.079-10.345.185-27.543.027-3.545.9-137.61zM107.898 3.746l-.186 28.416a4.447 4.447 0 0 1 1.932 3.757c0 1.588-.794 2.964-1.985 3.73l-.9 133.88-.052 7.673-.185 27.543-.08 10.345-.105 17.172h.529l10.715.08c-4.762-.027-8.969 1.93-11.27 4.867l-.08 10.451c2.275 2.964 6.43 4.975 11.218 5.001l13.573.08L132.69 3.904z"/>
    </g>
  </g>
  <g>
    <g fill="#fde090">
      <path d="M404.046 213.243l-15.187-.106.158-22.754 15.187.106c4.049.026 7.62 2.17 9.605 5.397l-.08 12.092c-2.037 3.175-5.609 5.291-9.683 5.265zM374.068 213.031c-6.27-.053-11.324-5.16-11.297-11.456.053-6.27 5.16-11.324 11.456-11.298l13.07.08-.158 22.754z"/>
    </g>
  </g>
</svg>
