<svg xmlns="http://www.w3.org/2000/svg" width="111.053" height="160.286" viewBox="0 0 29.383 42.409">
  <defs>
    <clipPath id="d">
      <path d="M9689.3 9748.98c-36.83-39.98-60.53-101.99-60.53-171.67 0-120.58 70.84-218.33 158.25-218.33 87.4 0 158.26 97.75 158.26 218.33 0 69.68-23.69 131.69-60.53 171.67z"/>
    </clipPath>
    <clipPath id="c">
      <path d="M10025.4 9797.33c0-15.66-12.7-28.35-28.4-28.35h-423.3c-15.65 0-28.34 12.69-28.34 28.35v138.31c0 15.65 12.69 28.34 28.34 28.34H9997c15.7 0 28.4-12.69 28.4-28.34z"/>
    </clipPath>
    <clipPath id="a">
      <path d="M9967.02 9577.31c0-137.15-80.59-248.33-180-248.33-99.42 0-180 111.18-180 248.33 0 137.16 80.58 248.34 180 248.34 99.41 0 180-111.18 180-248.34z"/>
    </clipPath>
    <linearGradient id="b" gradientTransform="matrix(360 0 0 -360 9607.02 9577.32)" gradientUnits="userSpaceOnUse" x2="1">
      <stop offset="0" stop-color="#fff"/>
      <stop offset="1" stop-color="#231f20"/>
    </linearGradient>
  </defs>
  <g clip-path="url(#a)" transform="matrix(.05996 0 0 -.06575 -572.04 655.463)">
    <path d="M9967.02 9577.31c0-137.15-80.59-248.33-180-248.33-99.42 0-180 111.18-180 248.33 0 137.16 80.58 248.34 180 248.34 99.41 0 180-111.18 180-248.34" fill="url(#b)"/>
  </g>
  <path d="M25.583 25.752h-.3c0 4.444-1.193 8.462-3.104 11.353-1.914 2.892-4.526 4.646-7.39 4.646-2.863 0-5.474-1.754-7.389-4.646-1.91-2.89-3.104-6.909-3.103-11.353 0-4.444 1.192-8.462 3.103-11.353 1.915-2.892 4.526-4.646 7.39-4.646 2.863 0 5.475 1.754 7.389 4.646 1.91 2.89 3.104 6.909 3.104 11.353h.6c0-4.573-1.224-8.719-3.22-11.739-1.991-3.016-4.776-4.918-7.873-4.918-3.098 0-5.883 1.902-7.875 4.918-1.995 3.02-3.217 7.166-3.218 11.74 0 4.572 1.223 8.719 3.218 11.738 1.992 3.016 4.777 4.918 7.875 4.918 3.097 0 5.882-1.902 7.874-4.918 1.995-3.02 3.218-7.166 3.218-11.739h-.3" fill="#241c1c"/>
  <g clip-path="url(#c)" transform="matrix(.05996 0 0 -.06575 -572.04 655.463)">
    <path d="M10025.4 9797.33c0-15.66-12.7-28.35-28.4-28.35h-423.3c-15.65 0-28.34 12.69-28.34 28.35v138.31c0 15.65 12.69 28.34 28.34 28.34H9997c15.7 0 28.4-12.69 28.4-28.34v-138.31" fill="#241c1c"/>
  </g>
  <path d="M29.083 11.286h-.3c-.005.848-.63 1.533-1.403 1.535H2c-.772-.002-1.398-.687-1.4-1.535V2.192C.6 1.345 1.228.66 2 .657H27.38c.774.002 1.397.688 1.403 1.535v9.094h.6V2.192C29.383.981 28.483 0 27.38 0H2C.895 0 0 .981 0 2.192v9.094c0 1.211.895 2.192 1.999 2.193H27.38c1.103 0 2.003-.982 2.003-2.193h-.3" fill="#e3dbdb"/>
  <g clip-path="url(#d)" transform="matrix(.05996 0 0 -.06575 -572.04 655.463)" fill="#483e37">
    <path d="M9689.3 9748.98c-36.83-39.98-60.53-101.99-60.53-171.67 0-120.58 70.84-218.33 158.25-218.33 87.4 0 158.26 97.75 158.26 218.33 0 69.68-23.69 131.69-60.53 171.67H9689.3"/>
    <path d="M9689.3 9748.98c-36.83-39.98-60.53-101.99-60.53-171.67 0-120.58 70.84-218.33 158.25-218.33 87.4 0 158.26 97.75 158.26 218.33 0 69.68-23.69 131.69-60.53 171.67H9689.3"/>
  </g>
  <path d="M8.93 14.465l-.22-.223C6.44 16.945 5.002 21.097 5 25.752c0 4.029 1.078 7.682 2.836 10.344 1.757 2.66 4.216 4.34 6.953 4.34s5.196-1.68 6.952-4.34c1.76-2.662 2.836-6.315 2.837-10.344 0-4.655-1.44-8.807-3.709-11.51l-.09-.106H8.8l-.09.106.221.223v.329h11.72v-.329l-.221.223c2.149 2.554 3.551 6.557 3.55 11.064 0 3.9-1.047 7.425-2.723 9.958-1.677 2.536-3.963 4.069-6.466 4.069-2.504 0-4.79-1.533-6.467-4.069-1.675-2.533-2.723-6.058-2.722-9.958 0-4.507 1.401-8.51 3.55-11.064l-.22-.223v.329-.329" fill="#241c1c"/>
</svg>
